solid clevis_calf_connector
   facet normal -9.659259e-01 9.456006e-15 -2.588186e-01
      outer loop
         vertex -9.182500e+01 3.175000e+00 3.247871e-14
         vertex -9.182500e+01 -3.175000e+00 -3.403401e-14
         vertex -9.225037e+01 3.175000e+00 1.587500e+00
      endloop
   endfacet
   facet normal -9.659259e-01 9.456006e-15 -2.588186e-01
      outer loop
         vertex -9.225037e+01 3.175000e+00 1.587500e+00
         vertex -9.182500e+01 -3.175000e+00 -3.403401e-14
         vertex -9.225037e+01 -3.175000e+00 1.587500e+00
      endloop
   endfacet
   facet normal -7.071058e-01 1.234425e-14 -7.071078e-01
      outer loop
         vertex -9.225037e+01 3.175000e+00 1.587500e+00
         vertex -9.225037e+01 -3.175000e+00 1.587500e+00
         vertex -9.341250e+01 3.175000e+00 2.749631e+00
      endloop
   endfacet
   facet normal -7.071058e-01 1.234425e-14 -7.071078e-01
      outer loop
         vertex -9.341250e+01 3.175000e+00 2.749631e+00
         vertex -9.225037e+01 -3.175000e+00 1.587500e+00
         vertex -9.341250e+01 -3.175000e+00 2.749631e+00
      endloop
   endfacet
   facet normal -2.588197e-01 1.192486e-14 -9.659256e-01
      outer loop
         vertex -9.341250e+01 3.175000e+00 2.749631e+00
         vertex -9.341250e+01 -3.175000e+00 2.749631e+00
         vertex -9.500000e+01 3.175000e+00 3.175000e+00
      endloop
   endfacet
   facet normal -2.588197e-01 1.192486e-14 -9.659256e-01
      outer loop
         vertex -9.500000e+01 3.175000e+00 3.175000e+00
         vertex -9.341250e+01 -3.175000e+00 2.749631e+00
         vertex -9.500000e+01 -3.175000e+00 3.175000e+00
      endloop
   endfacet
   facet normal 2.588186e-01 8.310217e-15 -9.659259e-01
      outer loop
         vertex -9.500000e+01 3.175000e+00 3.175000e+00
         vertex -9.500000e+01 -3.175000e+00 3.175000e+00
         vertex -9.658750e+01 3.175000e+00 2.749631e+00
      endloop
   endfacet
   facet normal 2.588186e-01 8.310217e-15 -9.659259e-01
      outer loop
         vertex -9.658750e+01 3.175000e+00 2.749631e+00
         vertex -9.500000e+01 -3.175000e+00 3.175000e+00
         vertex -9.658750e+01 -3.175000e+00 2.749631e+00
      endloop
   endfacet
   facet normal 7.071080e-01 2.468828e-15 -7.071055e-01
      outer loop
         vertex -9.658750e+01 3.175000e+00 2.749631e+00
         vertex -9.658750e+01 -3.175000e+00 2.749631e+00
         vertex -9.774963e+01 3.175000e+00 1.587500e+00
      endloop
   endfacet
   facet normal 7.071080e-01 2.468828e-15 -7.071055e-01
      outer loop
         vertex -9.774963e+01 3.175000e+00 1.587500e+00
         vertex -9.658750e+01 -3.175000e+00 2.749631e+00
         vertex -9.774963e+01 -3.175000e+00 1.587500e+00
      endloop
   endfacet
   facet normal 9.659259e-01 -4.034044e-15 -2.588186e-01
      outer loop
         vertex -9.774963e+01 3.175000e+00 1.587500e+00
         vertex -9.774963e+01 -3.175000e+00 1.587500e+00
         vertex -9.817500e+01 3.175000e+00 3.505517e-14
      endloop
   endfacet
   facet normal 9.659259e-01 -4.034044e-15 -2.588186e-01
      outer loop
         vertex -9.817500e+01 3.175000e+00 3.505517e-14
         vertex -9.774963e+01 -3.175000e+00 1.587500e+00
         vertex -9.817500e+01 -3.175000e+00 -3.145755e-14
      endloop
   endfacet
   facet normal 9.659259e-01 -9.456006e-15 2.588186e-01
      outer loop
         vertex -9.817500e+01 3.175000e+00 3.505517e-14
         vertex -9.817500e+01 -3.175000e+00 -3.145755e-14
         vertex -9.774963e+01 3.175000e+00 -1.587500e+00
      endloop
   endfacet
   facet normal 9.659259e-01 -9.456006e-15 2.588186e-01
      outer loop
         vertex -9.774963e+01 3.175000e+00 -1.587500e+00
         vertex -9.817500e+01 -3.175000e+00 -3.145755e-14
         vertex -9.774963e+01 -3.175000e+00 -1.587500e+00
      endloop
   endfacet
   facet normal 7.071080e-01 -1.234425e-14 7.071055e-01
      outer loop
         vertex -9.774963e+01 3.175000e+00 -1.587500e+00
         vertex -9.774963e+01 -3.175000e+00 -1.587500e+00
         vertex -9.658750e+01 3.175000e+00 -2.749631e+00
      endloop
   endfacet
   facet normal 7.071080e-01 -1.234425e-14 7.071055e-01
      outer loop
         vertex -9.658750e+01 3.175000e+00 -2.749631e+00
         vertex -9.774963e+01 -3.175000e+00 -1.587500e+00
         vertex -9.658750e+01 -3.175000e+00 -2.749631e+00
      endloop
   endfacet
   facet normal 2.588186e-01 -1.192486e-14 9.659259e-01
      outer loop
         vertex -9.658750e+01 3.175000e+00 -2.749631e+00
         vertex -9.658750e+01 -3.175000e+00 -2.749631e+00
         vertex -9.500000e+01 3.175000e+00 -3.175000e+00
      endloop
   endfacet
   facet normal 2.588186e-01 -1.192486e-14 9.659259e-01
      outer loop
         vertex -9.500000e+01 3.175000e+00 -3.175000e+00
         vertex -9.658750e+01 -3.175000e+00 -2.749631e+00
         vertex -9.500000e+01 -3.175000e+00 -3.175000e+00
      endloop
   endfacet
   facet normal -2.588197e-01 -8.310206e-15 9.659256e-01
      outer loop
         vertex -9.500000e+01 3.175000e+00 -3.175000e+00
         vertex -9.500000e+01 -3.175000e+00 -3.175000e+00
         vertex -9.341250e+01 3.175000e+00 -2.749631e+00
      endloop
   endfacet
   facet normal -2.588197e-01 -8.310206e-15 9.659256e-01
      outer loop
         vertex -9.341250e+01 3.175000e+00 -2.749631e+00
         vertex -9.500000e+01 -3.175000e+00 -3.175000e+00
         vertex -9.341250e+01 -3.175000e+00 -2.749631e+00
      endloop
   endfacet
   facet normal -7.071058e-01 -2.468868e-15 7.071078e-01
      outer loop
         vertex -9.341250e+01 3.175000e+00 -2.749631e+00
         vertex -9.341250e+01 -3.175000e+00 -2.749631e+00
         vertex -9.225037e+01 3.175000e+00 -1.587500e+00
      endloop
   endfacet
   facet normal -7.071058e-01 -2.468868e-15 7.071078e-01
      outer loop
         vertex -9.225037e+01 3.175000e+00 -1.587500e+00
         vertex -9.341250e+01 -3.175000e+00 -2.749631e+00
         vertex -9.225037e+01 -3.175000e+00 -1.587500e+00
      endloop
   endfacet
   facet normal -9.659259e-01 4.034044e-15 2.588186e-01
      outer loop
         vertex -9.225037e+01 3.175000e+00 -1.587500e+00
         vertex -9.225037e+01 -3.175000e+00 -1.587500e+00
         vertex -9.182500e+01 3.175000e+00 3.247871e-14
      endloop
   endfacet
   facet normal -9.659259e-01 4.034044e-15 2.588186e-01
      outer loop
         vertex -9.182500e+01 3.175000e+00 3.247871e-14
         vertex -9.225037e+01 -3.175000e+00 -1.587500e+00
         vertex -9.182500e+01 -3.175000e+00 -3.403401e-14
      endloop
   endfacet
   facet normal -6.982963e-15 -1.000000e+00 -1.047444e-14
      outer loop
         vertex -2.749631e+00 -3.175000e+00 -1.587500e+00
         vertex -3.175000e+00 -3.175000e+00 -3.286753e-14
         vertex -9.182500e+01 -3.175000e+00 -3.325636e-14
      endloop
   endfacet
   facet normal -6.982963e-15 -1.000000e+00 -1.047444e-14
      outer loop
         vertex -2.749631e+00 -3.175000e+00 -1.587500e+00
         vertex -9.182500e+01 -3.175000e+00 -3.325636e-14
         vertex -1.587500e+00 -3.175000e+00 -2.749631e+00
      endloop
   endfacet
   facet normal -6.982963e-15 -1.000000e+00 -1.047444e-14
      outer loop
         vertex -3.098519e+00 -3.175000e+00 -5.050228e+00
         vertex -9.712042e-01 -3.175000e+00 -5.844860e+00
         vertex 1.298777e+00 -3.175000e+00 -5.780900e+00
      endloop
   endfacet
   facet normal -6.982963e-15 -1.000000e+00 -1.047444e-14
      outer loop
         vertex -9.774963e+01 -3.175000e+00 1.587500e+00
         vertex -1.008152e+02 -3.175000e+00 1.135441e+00
         vertex -9.817500e+01 -3.175000e+00 -3.286753e-14
      endloop
   endfacet
   facet normal -6.982963e-15 -1.000000e+00 -1.047444e-14
      outer loop
         vertex -9.817500e+01 -3.175000e+00 -3.286753e-14
         vertex -1.008152e+02 -3.175000e+00 1.135441e+00
         vertex -1.008152e+02 -3.175000e+00 -1.135441e+00
      endloop
   endfacet
   facet normal -6.982963e-15 -1.000000e+00 -1.047444e-14
      outer loop
         vertex -9.817500e+01 -3.175000e+00 -3.286753e-14
         vertex -1.008152e+02 -3.175000e+00 -1.135441e+00
         vertex -9.774963e+01 -3.175000e+00 -1.587500e+00
      endloop
   endfacet
   facet normal -6.982963e-15 -1.000000e+00 -1.047444e-14
      outer loop
         vertex -9.774963e+01 -3.175000e+00 -1.587500e+00
         vertex -1.008152e+02 -3.175000e+00 -1.135441e+00
         vertex -9.996095e+01 -3.175000e+00 -3.239531e+00
      endloop
   endfacet
   facet normal -6.982963e-15 -1.000000e+00 -1.047444e-14
      outer loop
         vertex -9.774963e+01 -3.175000e+00 -1.587500e+00
         vertex -9.996095e+01 -3.175000e+00 -3.239531e+00
         vertex -9.658750e+01 -3.175000e+00 -2.749631e+00
      endloop
   endfacet
   facet normal -6.982963e-15 -1.000000e+00 -1.047444e-14
      outer loop
         vertex -9.500000e+01 -3.175000e+00 3.175000e+00
         vertex -9.629878e+01 -3.175000e+00 5.780900e+00
         vertex -9.658750e+01 -3.175000e+00 2.749631e+00
      endloop
   endfacet
   facet normal -6.982963e-15 -1.000000e+00 -1.047444e-14
      outer loop
         vertex -9.658750e+01 -3.175000e+00 2.749631e+00
         vertex -9.629878e+01 -3.175000e+00 5.780900e+00
         vertex -9.837797e+01 -3.175000e+00 4.867744e+00
      endloop
   endfacet
   facet normal -6.982963e-15 -1.000000e+00 -1.047444e-14
      outer loop
         vertex -9.658750e+01 -3.175000e+00 2.749631e+00
         vertex -9.837797e+01 -3.175000e+00 4.867744e+00
         vertex -9.774963e+01 -3.175000e+00 1.587500e+00
      endloop
   endfacet
   facet normal -6.982963e-15 -1.000000e+00 -1.047444e-14
      outer loop
         vertex -9.774963e+01 -3.175000e+00 1.587500e+00
         vertex -9.837797e+01 -3.175000e+00 4.867744e+00
         vertex -9.996095e+01 -3.175000e+00 3.239531e+00
      endloop
   endfacet
   facet normal -6.982963e-15 -1.000000e+00 -1.047444e-14
      outer loop
         vertex -9.774963e+01 -3.175000e+00 1.587500e+00
         vertex -9.996095e+01 -3.175000e+00 3.239531e+00
         vertex -1.008152e+02 -3.175000e+00 1.135441e+00
      endloop
   endfacet
   facet normal -6.982963e-15 -1.000000e+00 -1.047444e-14
      outer loop
         vertex 1.587500e+00 -3.175000e+00 2.749631e+00
         vertex 1.298777e+00 -3.175000e+00 5.780900e+00
         vertex -2.114774e-14 -3.175000e+00 3.175000e+00
      endloop
   endfacet
   facet normal -6.982963e-15 -1.000000e+00 -1.047444e-14
      outer loop
         vertex -2.114774e-14 -3.175000e+00 3.175000e+00
         vertex 1.298777e+00 -3.175000e+00 5.780900e+00
         vertex -9.712042e-01 -3.175000e+00 5.844860e+00
      endloop
   endfacet
   facet normal -6.982963e-15 -1.000000e+00 -1.047444e-14
      outer loop
         vertex -2.114774e-14 -3.175000e+00 3.175000e+00
         vertex -9.712042e-01 -3.175000e+00 5.844860e+00
         vertex -1.587500e+00 -3.175000e+00 2.749631e+00
      endloop
   endfacet
   facet normal -6.982963e-15 -1.000000e+00 -1.047444e-14
      outer loop
         vertex -1.587500e+00 -3.175000e+00 2.749631e+00
         vertex -9.712042e-01 -3.175000e+00 5.844860e+00
         vertex -3.098519e+00 -3.175000e+00 5.050228e+00
      endloop
   endfacet
   facet normal -6.982963e-15 -1.000000e+00 -1.047444e-14
      outer loop
         vertex -1.587500e+00 -3.175000e+00 2.749631e+00
         vertex -3.098519e+00 -3.175000e+00 5.050228e+00
         vertex -2.749631e+00 -3.175000e+00 1.587500e+00
      endloop
   endfacet
   facet normal -6.982963e-15 -1.000000e+00 -1.047444e-14
      outer loop
         vertex -2.749631e+00 -3.175000e+00 1.587500e+00
         vertex -3.098519e+00 -3.175000e+00 5.050228e+00
         vertex -5.736724e+00 -3.175000e+00 3.894986e+00
      endloop
   endfacet
   facet normal -6.982963e-15 -1.000000e+00 -1.047444e-14
      outer loop
         vertex -2.749631e+00 -3.175000e+00 1.587500e+00
         vertex -5.736724e+00 -3.175000e+00 3.894986e+00
         vertex -3.175000e+00 -3.175000e+00 -3.286753e-14
      endloop
   endfacet
   facet normal -6.982963e-15 -1.000000e+00 -1.047444e-14
      outer loop
         vertex -3.175000e+00 -3.175000e+00 -3.286753e-14
         vertex -5.736724e+00 -3.175000e+00 3.894986e+00
         vertex -8.589565e+00 -3.175000e+00 3.500000e+00
      endloop
   endfacet
   facet normal -6.982963e-15 -1.000000e+00 -1.047444e-14
      outer loop
         vertex -3.175000e+00 -3.175000e+00 -3.286753e-14
         vertex -8.589565e+00 -3.175000e+00 3.500000e+00
         vertex -9.182500e+01 -3.175000e+00 -3.325636e-14
      endloop
   endfacet
   facet normal -6.982963e-15 -1.000000e+00 -1.047444e-14
      outer loop
         vertex -9.182500e+01 -3.175000e+00 -3.325636e-14
         vertex -8.589565e+00 -3.175000e+00 3.500000e+00
         vertex -8.641043e+01 -3.175000e+00 3.500000e+00
      endloop
   endfacet
   facet normal -6.982963e-15 -1.000000e+00 -1.047444e-14
      outer loop
         vertex -9.182500e+01 -3.175000e+00 -3.325636e-14
         vertex -8.641043e+01 -3.175000e+00 3.500000e+00
         vertex -9.225037e+01 -3.175000e+00 1.587500e+00
      endloop
   endfacet
   facet normal -6.982963e-15 -1.000000e+00 -1.047444e-14
      outer loop
         vertex -9.225037e+01 -3.175000e+00 1.587500e+00
         vertex -8.641043e+01 -3.175000e+00 3.500000e+00
         vertex -8.926328e+01 -3.175000e+00 3.894986e+00
      endloop
   endfacet
   facet normal -6.982963e-15 -1.000000e+00 -1.047444e-14
      outer loop
         vertex -9.225037e+01 -3.175000e+00 1.587500e+00
         vertex -8.926328e+01 -3.175000e+00 3.894986e+00
         vertex -9.341250e+01 -3.175000e+00 2.749631e+00
      endloop
   endfacet
   facet normal -6.982963e-15 -1.000000e+00 -1.047444e-14
      outer loop
         vertex -9.341250e+01 -3.175000e+00 2.749631e+00
         vertex -8.926328e+01 -3.175000e+00 3.894986e+00
         vertex -9.190148e+01 -3.175000e+00 5.050228e+00
      endloop
   endfacet
   facet normal -6.982963e-15 -1.000000e+00 -1.047444e-14
      outer loop
         vertex -9.341250e+01 -3.175000e+00 2.749631e+00
         vertex -9.190148e+01 -3.175000e+00 5.050228e+00
         vertex -9.500000e+01 -3.175000e+00 3.175000e+00
      endloop
   endfacet
   facet normal -6.982963e-15 -1.000000e+00 -1.047444e-14
      outer loop
         vertex -9.500000e+01 -3.175000e+00 3.175000e+00
         vertex -9.190148e+01 -3.175000e+00 5.050228e+00
         vertex -9.402879e+01 -3.175000e+00 5.844860e+00
      endloop
   endfacet
   facet normal -6.982963e-15 -1.000000e+00 -1.047444e-14
      outer loop
         vertex -9.500000e+01 -3.175000e+00 3.175000e+00
         vertex -9.402879e+01 -3.175000e+00 5.844860e+00
         vertex -9.629878e+01 -3.175000e+00 5.780900e+00
      endloop
   endfacet
   facet normal -6.982963e-15 -1.000000e+00 -1.047444e-14
      outer loop
         vertex 3.175000e+00 -3.175000e+00 -3.325636e-14
         vertex 5.815187e+00 -3.175000e+00 1.135441e+00
         vertex 2.749631e+00 -3.175000e+00 1.587500e+00
      endloop
   endfacet
   facet normal -6.982963e-15 -1.000000e+00 -1.047444e-14
      outer loop
         vertex 2.749631e+00 -3.175000e+00 1.587500e+00
         vertex 5.815187e+00 -3.175000e+00 1.135441e+00
         vertex 4.960954e+00 -3.175000e+00 3.239531e+00
      endloop
   endfacet
   facet normal -6.982963e-15 -1.000000e+00 -1.047444e-14
      outer loop
         vertex 2.749631e+00 -3.175000e+00 1.587500e+00
         vertex 4.960954e+00 -3.175000e+00 3.239531e+00
         vertex 1.587500e+00 -3.175000e+00 2.749631e+00
      endloop
   endfacet
   facet normal -6.982963e-15 -1.000000e+00 -1.047444e-14
      outer loop
         vertex 1.587500e+00 -3.175000e+00 2.749631e+00
         vertex 4.960954e+00 -3.175000e+00 3.239531e+00
         vertex 3.377972e+00 -3.175000e+00 4.867744e+00
      endloop
   endfacet
   facet normal -6.982963e-15 -1.000000e+00 -1.047444e-14
      outer loop
         vertex 1.587500e+00 -3.175000e+00 2.749631e+00
         vertex 3.377972e+00 -3.175000e+00 4.867744e+00
         vertex 1.298777e+00 -3.175000e+00 5.780900e+00
      endloop
   endfacet
   facet normal -6.982963e-15 -1.000000e+00 -1.047444e-14
      outer loop
         vertex -1.587500e+00 -3.175000e+00 -2.749631e+00
         vertex -9.182500e+01 -3.175000e+00 -3.325636e-14
         vertex -2.545034e-14 -3.175000e+00 -3.175000e+00
      endloop
   endfacet
   facet normal -6.982963e-15 -1.000000e+00 -1.047444e-14
      outer loop
         vertex -2.545034e-14 -3.175000e+00 -3.175000e+00
         vertex -9.182500e+01 -3.175000e+00 -3.325636e-14
         vertex -8.589565e+00 -3.175000e+00 -3.500000e+00
      endloop
   endfacet
   facet normal -6.982963e-15 -1.000000e+00 -1.047444e-14
      outer loop
         vertex -2.545034e-14 -3.175000e+00 -3.175000e+00
         vertex -8.589565e+00 -3.175000e+00 -3.500000e+00
         vertex -5.736724e+00 -3.175000e+00 -3.894986e+00
      endloop
   endfacet
   facet normal -6.982963e-15 -1.000000e+00 -1.047444e-14
      outer loop
         vertex -5.736724e+00 -3.175000e+00 -3.894986e+00
         vertex -3.098519e+00 -3.175000e+00 -5.050228e+00
         vertex -2.545034e-14 -3.175000e+00 -3.175000e+00
      endloop
   endfacet
   facet normal -6.982963e-15 -1.000000e+00 -1.047444e-14
      outer loop
         vertex -2.545034e-14 -3.175000e+00 -3.175000e+00
         vertex -3.098519e+00 -3.175000e+00 -5.050228e+00
         vertex 1.298777e+00 -3.175000e+00 -5.780900e+00
      endloop
   endfacet
   facet normal -6.982963e-15 -1.000000e+00 -1.047444e-14
      outer loop
         vertex -2.545034e-14 -3.175000e+00 -3.175000e+00
         vertex 1.298777e+00 -3.175000e+00 -5.780900e+00
         vertex 1.587500e+00 -3.175000e+00 -2.749631e+00
      endloop
   endfacet
   facet normal -6.982963e-15 -1.000000e+00 -1.047444e-14
      outer loop
         vertex 1.587500e+00 -3.175000e+00 -2.749631e+00
         vertex 1.298777e+00 -3.175000e+00 -5.780900e+00
         vertex 3.377972e+00 -3.175000e+00 -4.867744e+00
      endloop
   endfacet
   facet normal -6.982963e-15 -1.000000e+00 -1.047444e-14
      outer loop
         vertex 1.587500e+00 -3.175000e+00 -2.749631e+00
         vertex 3.377972e+00 -3.175000e+00 -4.867744e+00
         vertex 2.749631e+00 -3.175000e+00 -1.587500e+00
      endloop
   endfacet
   facet normal -6.982963e-15 -1.000000e+00 -1.047444e-14
      outer loop
         vertex 2.749631e+00 -3.175000e+00 -1.587500e+00
         vertex 3.377972e+00 -3.175000e+00 -4.867744e+00
         vertex 4.960954e+00 -3.175000e+00 -3.239531e+00
      endloop
   endfacet
   facet normal -6.982963e-15 -1.000000e+00 -1.047444e-14
      outer loop
         vertex 2.749631e+00 -3.175000e+00 -1.587500e+00
         vertex 4.960954e+00 -3.175000e+00 -3.239531e+00
         vertex 3.175000e+00 -3.175000e+00 -3.325636e-14
      endloop
   endfacet
   facet normal -6.982963e-15 -1.000000e+00 -1.047444e-14
      outer loop
         vertex 3.175000e+00 -3.175000e+00 -3.325636e-14
         vertex 4.960954e+00 -3.175000e+00 -3.239531e+00
         vertex 5.815187e+00 -3.175000e+00 -1.135441e+00
      endloop
   endfacet
   facet normal -6.982963e-15 -1.000000e+00 -1.047444e-14
      outer loop
         vertex 3.175000e+00 -3.175000e+00 -3.325636e-14
         vertex 5.815187e+00 -3.175000e+00 -1.135441e+00
         vertex 5.815187e+00 -3.175000e+00 1.135441e+00
      endloop
   endfacet
   facet normal -6.982963e-15 -1.000000e+00 -1.047444e-14
      outer loop
         vertex -9.996095e+01 -3.175000e+00 -3.239531e+00
         vertex -9.837797e+01 -3.175000e+00 -4.867744e+00
         vertex -9.658750e+01 -3.175000e+00 -2.749631e+00
      endloop
   endfacet
   facet normal -6.982963e-15 -1.000000e+00 -1.047444e-14
      outer loop
         vertex -9.658750e+01 -3.175000e+00 -2.749631e+00
         vertex -9.837797e+01 -3.175000e+00 -4.867744e+00
         vertex -9.629878e+01 -3.175000e+00 -5.780900e+00
      endloop
   endfacet
   facet normal -6.982963e-15 -1.000000e+00 -1.047444e-14
      outer loop
         vertex -9.658750e+01 -3.175000e+00 -2.749631e+00
         vertex -9.629878e+01 -3.175000e+00 -5.780900e+00
         vertex -9.500000e+01 -3.175000e+00 -3.175000e+00
      endloop
   endfacet
   facet normal -6.982963e-15 -1.000000e+00 -1.047444e-14
      outer loop
         vertex -9.500000e+01 -3.175000e+00 -3.175000e+00
         vertex -9.629878e+01 -3.175000e+00 -5.780900e+00
         vertex -9.402879e+01 -3.175000e+00 -5.844860e+00
      endloop
   endfacet
   facet normal -6.982963e-15 -1.000000e+00 -1.047444e-14
      outer loop
         vertex -9.500000e+01 -3.175000e+00 -3.175000e+00
         vertex -9.402879e+01 -3.175000e+00 -5.844860e+00
         vertex -9.341250e+01 -3.175000e+00 -2.749631e+00
      endloop
   endfacet
   facet normal -6.982963e-15 -1.000000e+00 -1.047444e-14
      outer loop
         vertex -9.341250e+01 -3.175000e+00 -2.749631e+00
         vertex -9.402879e+01 -3.175000e+00 -5.844860e+00
         vertex -9.190148e+01 -3.175000e+00 -5.050228e+00
      endloop
   endfacet
   facet normal -6.982963e-15 -1.000000e+00 -1.047444e-14
      outer loop
         vertex -9.341250e+01 -3.175000e+00 -2.749631e+00
         vertex -9.190148e+01 -3.175000e+00 -5.050228e+00
         vertex -9.225037e+01 -3.175000e+00 -1.587500e+00
      endloop
   endfacet
   facet normal -6.982963e-15 -1.000000e+00 -1.047444e-14
      outer loop
         vertex -9.225037e+01 -3.175000e+00 -1.587500e+00
         vertex -9.190148e+01 -3.175000e+00 -5.050228e+00
         vertex -8.926328e+01 -3.175000e+00 -3.894986e+00
      endloop
   endfacet
   facet normal -6.982963e-15 -1.000000e+00 -1.047444e-14
      outer loop
         vertex -9.225037e+01 -3.175000e+00 -1.587500e+00
         vertex -8.926328e+01 -3.175000e+00 -3.894986e+00
         vertex -9.182500e+01 -3.175000e+00 -3.325636e-14
      endloop
   endfacet
   facet normal -6.982963e-15 -1.000000e+00 -1.047444e-14
      outer loop
         vertex -9.182500e+01 -3.175000e+00 -3.325636e-14
         vertex -8.926328e+01 -3.175000e+00 -3.894986e+00
         vertex -8.641043e+01 -3.175000e+00 -3.500000e+00
      endloop
   endfacet
   facet normal -6.982963e-15 -1.000000e+00 -1.047444e-14
      outer loop
         vertex -9.182500e+01 -3.175000e+00 -3.325636e-14
         vertex -8.641043e+01 -3.175000e+00 -3.500000e+00
         vertex -8.589565e+00 -3.175000e+00 -3.500000e+00
      endloop
   endfacet
   facet normal 3.499222e-01 7.368743e-15 -9.367788e-01
      outer loop
         vertex -9.164000e+01 2.675000e+00 -5.476408e+00
         vertex -9.164000e+01 -2.675000e+00 -5.476408e+00
         vertex -9.394684e+01 -2.675000e+00 -6.338097e+00
      endloop
   endfacet
   facet normal 3.499222e-01 7.368743e-15 -9.367788e-01
      outer loop
         vertex -9.164000e+01 2.675000e+00 -5.476408e+00
         vertex -9.394684e+01 -2.675000e+00 -6.338097e+00
         vertex -9.394684e+01 2.675000e+00 -6.338097e+00
      endloop
   endfacet
   facet normal -2.816540e-02 1.066697e-14 -9.996033e-01
      outer loop
         vertex -9.394684e+01 2.675000e+00 -6.338097e+00
         vertex -9.394684e+01 -2.675000e+00 -6.338097e+00
         vertex -9.640838e+01 -2.675000e+00 -6.268739e+00
      endloop
   endfacet
   facet normal -2.816540e-02 1.066697e-14 -9.996033e-01
      outer loop
         vertex -9.394684e+01 2.675000e+00 -6.338097e+00
         vertex -9.640838e+01 -2.675000e+00 -6.268739e+00
         vertex -9.640838e+01 2.675000e+00 -6.268739e+00
      endloop
   endfacet
   facet normal -4.021158e-01 1.239824e-14 -9.155888e-01
      outer loop
         vertex -9.640838e+01 2.675000e+00 -6.268739e+00
         vertex -9.640838e+01 -2.675000e+00 -6.268739e+00
         vertex -9.866303e+01 -2.675000e+00 -5.278524e+00
      endloop
   endfacet
   facet normal -4.021158e-01 1.239824e-14 -9.155888e-01
      outer loop
         vertex -9.640838e+01 2.675000e+00 -6.268739e+00
         vertex -9.866303e+01 -2.675000e+00 -5.278524e+00
         vertex -9.866303e+01 2.675000e+00 -5.278524e+00
      endloop
   endfacet
   facet normal -7.169951e-01 1.230826e-14 -6.970782e-01
      outer loop
         vertex -9.866303e+01 2.675000e+00 -5.278524e+00
         vertex -9.866303e+01 -2.675000e+00 -5.278524e+00
         vertex -1.003796e+02 -2.675000e+00 -3.512909e+00
      endloop
   endfacet
   facet normal -7.169951e-01 1.230826e-14 -6.970782e-01
      outer loop
         vertex -9.866303e+01 2.675000e+00 -5.278524e+00
         vertex -1.003796e+02 -2.675000e+00 -3.512909e+00
         vertex -1.003796e+02 2.675000e+00 -3.512909e+00
      endloop
   endfacet
   facet normal -9.265521e-01 1.041021e-14 -3.761663e-01
      outer loop
         vertex -1.003796e+02 2.675000e+00 -3.512909e+00
         vertex -1.003796e+02 -2.675000e+00 -3.512909e+00
         vertex -1.013059e+02 -2.675000e+00 -1.231259e+00
      endloop
   endfacet
   facet normal -9.265521e-01 1.041021e-14 -3.761663e-01
      outer loop
         vertex -1.003796e+02 2.675000e+00 -3.512909e+00
         vertex -1.013059e+02 -2.675000e+00 -1.231259e+00
         vertex -1.013059e+02 2.675000e+00 -1.231259e+00
      endloop
   endfacet
   facet normal -1.000000e+00 6.982963e-15 0.000000e+00
      outer loop
         vertex -1.013059e+02 2.675000e+00 -1.231259e+00
         vertex -1.013059e+02 -2.675000e+00 -1.231259e+00
         vertex -1.013059e+02 -2.675000e+00 1.231259e+00
      endloop
   endfacet
   facet normal -1.000000e+00 6.982963e-15 0.000000e+00
      outer loop
         vertex -1.013059e+02 2.675000e+00 -1.231259e+00
         vertex -1.013059e+02 -2.675000e+00 1.231259e+00
         vertex -1.013059e+02 2.675000e+00 1.231259e+00
      endloop
   endfacet
   facet normal -9.265521e-01 2.529946e-15 3.761663e-01
      outer loop
         vertex -1.013059e+02 2.675000e+00 1.231259e+00
         vertex -1.013059e+02 -2.675000e+00 1.231259e+00
         vertex -1.003796e+02 -2.675000e+00 3.512909e+00
      endloop
   endfacet
   facet normal -9.265521e-01 2.529946e-15 3.761663e-01
      outer loop
         vertex -1.013059e+02 2.675000e+00 1.231259e+00
         vertex -1.003796e+02 -2.675000e+00 3.512909e+00
         vertex -1.003796e+02 2.675000e+00 3.512909e+00
      endloop
   endfacet
   facet normal -7.169951e-01 -2.294757e-15 6.970782e-01
      outer loop
         vertex -1.003796e+02 2.675000e+00 3.512909e+00
         vertex -1.003796e+02 -2.675000e+00 3.512909e+00
         vertex -9.866303e+01 -2.675000e+00 5.278524e+00
      endloop
   endfacet
   facet normal -7.169951e-01 -2.294757e-15 6.970782e-01
      outer loop
         vertex -1.003796e+02 2.675000e+00 3.512909e+00
         vertex -9.866303e+01 -2.675000e+00 5.278524e+00
         vertex -9.866303e+01 2.675000e+00 5.278524e+00
      endloop
   endfacet
   facet normal -4.021158e-01 -6.782324e-15 9.155888e-01
      outer loop
         vertex -9.866303e+01 2.675000e+00 5.278524e+00
         vertex -9.866303e+01 -2.675000e+00 5.278524e+00
         vertex -9.640838e+01 -2.675000e+00 6.268739e+00
      endloop
   endfacet
   facet normal -4.021158e-01 -6.782324e-15 9.155888e-01
      outer loop
         vertex -9.866303e+01 2.675000e+00 5.278524e+00
         vertex -9.640838e+01 -2.675000e+00 6.268739e+00
         vertex -9.640838e+01 2.675000e+00 6.268739e+00
      endloop
   endfacet
   facet normal -2.816540e-02 -1.027361e-14 9.996033e-01
      outer loop
         vertex -9.640838e+01 2.675000e+00 6.268739e+00
         vertex -9.640838e+01 -2.675000e+00 6.268739e+00
         vertex -9.394684e+01 -2.675000e+00 6.338097e+00
      endloop
   endfacet
   facet normal -2.816540e-02 -1.027361e-14 9.996033e-01
      outer loop
         vertex -9.640838e+01 2.675000e+00 6.268739e+00
         vertex -9.394684e+01 -2.675000e+00 6.338097e+00
         vertex -9.394684e+01 2.675000e+00 6.338097e+00
      endloop
   endfacet
   facet normal 3.499222e-01 -1.225573e-14 9.367788e-01
      outer loop
         vertex -9.394684e+01 2.675000e+00 6.338097e+00
         vertex -9.394684e+01 -2.675000e+00 6.338097e+00
         vertex -9.164000e+01 -2.675000e+00 5.476408e+00
      endloop
   endfacet
   facet normal 3.499222e-01 -1.225573e-14 9.367788e-01
      outer loop
         vertex -9.394684e+01 2.675000e+00 6.338097e+00
         vertex -9.164000e+01 -2.675000e+00 5.476408e+00
         vertex -9.164000e+01 2.675000e+00 5.476408e+00
      endloop
   endfacet
   facet normal 6.982963e-15 1.000000e+00 1.047444e-14
      outer loop
         vertex -9.774963e+01 3.175000e+00 -1.587500e+00
         vertex -1.008152e+02 3.175000e+00 -1.135441e+00
         vertex -9.817500e+01 3.175000e+00 3.442283e-14
      endloop
   endfacet
   facet normal 6.982963e-15 1.000000e+00 1.047444e-14
      outer loop
         vertex -9.817500e+01 3.175000e+00 3.442283e-14
         vertex -1.008152e+02 3.175000e+00 -1.135441e+00
         vertex -1.008152e+02 3.175000e+00 1.135441e+00
      endloop
   endfacet
   facet normal 6.982963e-15 1.000000e+00 1.047444e-14
      outer loop
         vertex -9.817500e+01 3.175000e+00 3.442283e-14
         vertex -1.008152e+02 3.175000e+00 1.135441e+00
         vertex -9.774963e+01 3.175000e+00 1.587500e+00
      endloop
   endfacet
   facet normal 6.982963e-15 1.000000e+00 1.047444e-14
      outer loop
         vertex -9.774963e+01 3.175000e+00 1.587500e+00
         vertex -1.008152e+02 3.175000e+00 1.135441e+00
         vertex -9.996095e+01 3.175000e+00 3.239531e+00
      endloop
   endfacet
   facet normal 6.982963e-15 1.000000e+00 1.047444e-14
      outer loop
         vertex -9.774963e+01 3.175000e+00 1.587500e+00
         vertex -9.996095e+01 3.175000e+00 3.239531e+00
         vertex -9.658750e+01 3.175000e+00 2.749631e+00
      endloop
   endfacet
   facet normal 6.982963e-15 1.000000e+00 1.047444e-14
      outer loop
         vertex 2.749631e+00 3.175000e+00 1.587500e+00
         vertex 5.815187e+00 3.175000e+00 1.135441e+00
         vertex 3.175000e+00 3.175000e+00 3.325636e-14
      endloop
   endfacet
   facet normal 6.982963e-15 1.000000e+00 1.047444e-14
      outer loop
         vertex 3.175000e+00 3.175000e+00 3.325636e-14
         vertex 5.815187e+00 3.175000e+00 1.135441e+00
         vertex 5.815187e+00 3.175000e+00 -1.135441e+00
      endloop
   endfacet
   facet normal 6.982963e-15 1.000000e+00 1.047444e-14
      outer loop
         vertex 3.175000e+00 3.175000e+00 3.325636e-14
         vertex 5.815187e+00 3.175000e+00 -1.135441e+00
         vertex 2.749631e+00 3.175000e+00 -1.587500e+00
      endloop
   endfacet
   facet normal 6.982963e-15 1.000000e+00 1.047444e-14
      outer loop
         vertex 2.749631e+00 3.175000e+00 -1.587500e+00
         vertex 5.815187e+00 3.175000e+00 -1.135441e+00
         vertex 4.960954e+00 3.175000e+00 -3.239531e+00
      endloop
   endfacet
   facet normal 6.982963e-15 1.000000e+00 1.047444e-14
      outer loop
         vertex 2.749631e+00 3.175000e+00 -1.587500e+00
         vertex 4.960954e+00 3.175000e+00 -3.239531e+00
         vertex 1.587500e+00 3.175000e+00 -2.749631e+00
      endloop
   endfacet
   facet normal 6.982963e-15 1.000000e+00 1.047444e-14
      outer loop
         vertex -9.500000e+01 3.175000e+00 -3.175000e+00
         vertex -9.629878e+01 3.175000e+00 -5.780900e+00
         vertex -9.658750e+01 3.175000e+00 -2.749631e+00
      endloop
   endfacet
   facet normal 6.982963e-15 1.000000e+00 1.047444e-14
      outer loop
         vertex -9.658750e+01 3.175000e+00 -2.749631e+00
         vertex -9.629878e+01 3.175000e+00 -5.780900e+00
         vertex -9.837797e+01 3.175000e+00 -4.867744e+00
      endloop
   endfacet
   facet normal 6.982963e-15 1.000000e+00 1.047444e-14
      outer loop
         vertex -9.658750e+01 3.175000e+00 -2.749631e+00
         vertex -9.837797e+01 3.175000e+00 -4.867744e+00
         vertex -9.774963e+01 3.175000e+00 -1.587500e+00
      endloop
   endfacet
   facet normal 6.982963e-15 1.000000e+00 1.047444e-14
      outer loop
         vertex -9.774963e+01 3.175000e+00 -1.587500e+00
         vertex -9.837797e+01 3.175000e+00 -4.867744e+00
         vertex -9.996095e+01 3.175000e+00 -3.239531e+00
      endloop
   endfacet
   facet normal 6.982963e-15 1.000000e+00 1.047444e-14
      outer loop
         vertex -9.774963e+01 3.175000e+00 -1.587500e+00
         vertex -9.996095e+01 3.175000e+00 -3.239531e+00
         vertex -1.008152e+02 3.175000e+00 -1.135441e+00
      endloop
   endfacet
   facet normal 6.982963e-15 1.000000e+00 1.047444e-14
      outer loop
         vertex 2.319408e-14 3.175000e+00 3.175000e+00
         vertex 1.298777e+00 3.175000e+00 5.780900e+00
         vertex 1.587500e+00 3.175000e+00 2.749631e+00
      endloop
   endfacet
   facet normal 6.982963e-15 1.000000e+00 1.047444e-14
      outer loop
         vertex 1.587500e+00 3.175000e+00 2.749631e+00
         vertex 1.298777e+00 3.175000e+00 5.780900e+00
         vertex 3.377972e+00 3.175000e+00 4.867744e+00
      endloop
   endfacet
   facet normal 6.982963e-15 1.000000e+00 1.047444e-14
      outer loop
         vertex 1.587500e+00 3.175000e+00 2.749631e+00
         vertex 3.377972e+00 3.175000e+00 4.867744e+00
         vertex 2.749631e+00 3.175000e+00 1.587500e+00
      endloop
   endfacet
   facet normal 6.982963e-15 1.000000e+00 1.047444e-14
      outer loop
         vertex 2.749631e+00 3.175000e+00 1.587500e+00
         vertex 3.377972e+00 3.175000e+00 4.867744e+00
         vertex 4.960954e+00 3.175000e+00 3.239531e+00
      endloop
   endfacet
   facet normal 6.982963e-15 1.000000e+00 1.047444e-14
      outer loop
         vertex 2.749631e+00 3.175000e+00 1.587500e+00
         vertex 4.960954e+00 3.175000e+00 3.239531e+00
         vertex 5.815187e+00 3.175000e+00 1.135441e+00
      endloop
   endfacet
   facet normal 6.982963e-15 1.000000e+00 1.047444e-14
      outer loop
         vertex 4.960954e+00 3.175000e+00 -3.239531e+00
         vertex 3.377972e+00 3.175000e+00 -4.867744e+00
         vertex 1.587500e+00 3.175000e+00 -2.749631e+00
      endloop
   endfacet
   facet normal 6.982963e-15 1.000000e+00 1.047444e-14
      outer loop
         vertex 1.587500e+00 3.175000e+00 -2.749631e+00
         vertex 3.377972e+00 3.175000e+00 -4.867744e+00
         vertex 1.298777e+00 3.175000e+00 -5.780900e+00
      endloop
   endfacet
   facet normal 6.982963e-15 1.000000e+00 1.047444e-14
      outer loop
         vertex 1.587500e+00 3.175000e+00 -2.749631e+00
         vertex 1.298777e+00 3.175000e+00 -5.780900e+00
         vertex 1.889147e-14 3.175000e+00 -3.175000e+00
      endloop
   endfacet
   facet normal 6.982963e-15 1.000000e+00 1.047444e-14
      outer loop
         vertex 1.889147e-14 3.175000e+00 -3.175000e+00
         vertex 1.298777e+00 3.175000e+00 -5.780900e+00
         vertex -9.712042e-01 3.175000e+00 -5.844860e+00
      endloop
   endfacet
   facet normal 6.982963e-15 1.000000e+00 1.047444e-14
      outer loop
         vertex 1.889147e-14 3.175000e+00 -3.175000e+00
         vertex -9.712042e-01 3.175000e+00 -5.844860e+00
         vertex -1.587500e+00 3.175000e+00 -2.749631e+00
      endloop
   endfacet
   facet normal 6.982963e-15 1.000000e+00 1.047444e-14
      outer loop
         vertex -1.587500e+00 3.175000e+00 -2.749631e+00
         vertex -9.712042e-01 3.175000e+00 -5.844860e+00
         vertex -3.098519e+00 3.175000e+00 -5.050228e+00
      endloop
   endfacet
   facet normal 6.982963e-15 1.000000e+00 1.047444e-14
      outer loop
         vertex -1.587500e+00 3.175000e+00 -2.749631e+00
         vertex -3.098519e+00 3.175000e+00 -5.050228e+00
         vertex -2.749631e+00 3.175000e+00 -1.587500e+00
      endloop
   endfacet
   facet normal 6.982963e-15 1.000000e+00 1.047444e-14
      outer loop
         vertex -2.749631e+00 3.175000e+00 -1.587500e+00
         vertex -3.098519e+00 3.175000e+00 -5.050228e+00
         vertex -5.736724e+00 3.175000e+00 -3.894986e+00
      endloop
   endfacet
   facet normal 6.982963e-15 1.000000e+00 1.047444e-14
      outer loop
         vertex -2.749631e+00 3.175000e+00 -1.587500e+00
         vertex -5.736724e+00 3.175000e+00 -3.894986e+00
         vertex -3.175000e+00 3.175000e+00 3.442283e-14
      endloop
   endfacet
   facet normal 6.982963e-15 1.000000e+00 1.047444e-14
      outer loop
         vertex -3.175000e+00 3.175000e+00 3.442283e-14
         vertex -5.736724e+00 3.175000e+00 -3.894986e+00
         vertex -8.589565e+00 3.175000e+00 -3.500000e+00
      endloop
   endfacet
   facet normal 6.982963e-15 1.000000e+00 1.047444e-14
      outer loop
         vertex -3.175000e+00 3.175000e+00 3.442283e-14
         vertex -8.589565e+00 3.175000e+00 -3.500000e+00
         vertex -9.182500e+01 3.175000e+00 3.325636e-14
      endloop
   endfacet
   facet normal 6.982963e-15 1.000000e+00 1.047444e-14
      outer loop
         vertex -9.182500e+01 3.175000e+00 3.325636e-14
         vertex -8.589565e+00 3.175000e+00 -3.500000e+00
         vertex -8.641043e+01 3.175000e+00 -3.500000e+00
      endloop
   endfacet
   facet normal 6.982963e-15 1.000000e+00 1.047444e-14
      outer loop
         vertex -9.182500e+01 3.175000e+00 3.325636e-14
         vertex -8.641043e+01 3.175000e+00 -3.500000e+00
         vertex -9.225037e+01 3.175000e+00 -1.587500e+00
      endloop
   endfacet
   facet normal 6.982963e-15 1.000000e+00 1.047444e-14
      outer loop
         vertex -9.225037e+01 3.175000e+00 -1.587500e+00
         vertex -8.641043e+01 3.175000e+00 -3.500000e+00
         vertex -8.926328e+01 3.175000e+00 -3.894986e+00
      endloop
   endfacet
   facet normal 6.982963e-15 1.000000e+00 1.047444e-14
      outer loop
         vertex -9.225037e+01 3.175000e+00 -1.587500e+00
         vertex -8.926328e+01 3.175000e+00 -3.894986e+00
         vertex -9.341250e+01 3.175000e+00 -2.749631e+00
      endloop
   endfacet
   facet normal 6.982963e-15 1.000000e+00 1.047444e-14
      outer loop
         vertex -9.341250e+01 3.175000e+00 -2.749631e+00
         vertex -8.926328e+01 3.175000e+00 -3.894986e+00
         vertex -9.190148e+01 3.175000e+00 -5.050228e+00
      endloop
   endfacet
   facet normal 6.982963e-15 1.000000e+00 1.047444e-14
      outer loop
         vertex -9.341250e+01 3.175000e+00 -2.749631e+00
         vertex -9.190148e+01 3.175000e+00 -5.050228e+00
         vertex -9.500000e+01 3.175000e+00 -3.175000e+00
      endloop
   endfacet
   facet normal 6.982963e-15 1.000000e+00 1.047444e-14
      outer loop
         vertex -9.500000e+01 3.175000e+00 -3.175000e+00
         vertex -9.190148e+01 3.175000e+00 -5.050228e+00
         vertex -9.402879e+01 3.175000e+00 -5.844860e+00
      endloop
   endfacet
   facet normal 6.982963e-15 1.000000e+00 1.047444e-14
      outer loop
         vertex -9.500000e+01 3.175000e+00 -3.175000e+00
         vertex -9.402879e+01 3.175000e+00 -5.844860e+00
         vertex -9.629878e+01 3.175000e+00 -5.780900e+00
      endloop
   endfacet
   facet normal 6.982963e-15 1.000000e+00 1.047444e-14
      outer loop
         vertex -9.996095e+01 3.175000e+00 3.239531e+00
         vertex -9.837797e+01 3.175000e+00 4.867744e+00
         vertex -9.658750e+01 3.175000e+00 2.749631e+00
      endloop
   endfacet
   facet normal 6.982963e-15 1.000000e+00 1.047444e-14
      outer loop
         vertex -9.658750e+01 3.175000e+00 2.749631e+00
         vertex -9.837797e+01 3.175000e+00 4.867744e+00
         vertex -9.629878e+01 3.175000e+00 5.780900e+00
      endloop
   endfacet
   facet normal 6.982963e-15 1.000000e+00 1.047444e-14
      outer loop
         vertex -9.658750e+01 3.175000e+00 2.749631e+00
         vertex -9.629878e+01 3.175000e+00 5.780900e+00
         vertex -9.500000e+01 3.175000e+00 3.175000e+00
      endloop
   endfacet
   facet normal 6.982963e-15 1.000000e+00 1.047444e-14
      outer loop
         vertex -9.500000e+01 3.175000e+00 3.175000e+00
         vertex -9.629878e+01 3.175000e+00 5.780900e+00
         vertex -9.402879e+01 3.175000e+00 5.844860e+00
      endloop
   endfacet
   facet normal 6.982963e-15 1.000000e+00 1.047444e-14
      outer loop
         vertex -9.500000e+01 3.175000e+00 3.175000e+00
         vertex -9.402879e+01 3.175000e+00 5.844860e+00
         vertex -9.341250e+01 3.175000e+00 2.749631e+00
      endloop
   endfacet
   facet normal 6.982963e-15 1.000000e+00 1.047444e-14
      outer loop
         vertex -9.341250e+01 3.175000e+00 2.749631e+00
         vertex -9.402879e+01 3.175000e+00 5.844860e+00
         vertex -9.190148e+01 3.175000e+00 5.050228e+00
      endloop
   endfacet
   facet normal 6.982963e-15 1.000000e+00 1.047444e-14
      outer loop
         vertex -9.341250e+01 3.175000e+00 2.749631e+00
         vertex -9.190148e+01 3.175000e+00 5.050228e+00
         vertex -9.225037e+01 3.175000e+00 1.587500e+00
      endloop
   endfacet
   facet normal 6.982963e-15 1.000000e+00 1.047444e-14
      outer loop
         vertex -9.225037e+01 3.175000e+00 1.587500e+00
         vertex -9.190148e+01 3.175000e+00 5.050228e+00
         vertex -8.926328e+01 3.175000e+00 3.894986e+00
      endloop
   endfacet
   facet normal 6.982963e-15 1.000000e+00 1.047444e-14
      outer loop
         vertex -9.225037e+01 3.175000e+00 1.587500e+00
         vertex -8.926328e+01 3.175000e+00 3.894986e+00
         vertex -9.182500e+01 3.175000e+00 3.325636e-14
      endloop
   endfacet
   facet normal 6.982963e-15 1.000000e+00 1.047444e-14
      outer loop
         vertex -9.182500e+01 3.175000e+00 3.325636e-14
         vertex -8.926328e+01 3.175000e+00 3.894986e+00
         vertex -8.641043e+01 3.175000e+00 3.500000e+00
      endloop
   endfacet
   facet normal 6.982963e-15 1.000000e+00 1.047444e-14
      outer loop
         vertex -9.182500e+01 3.175000e+00 3.325636e-14
         vertex -8.641043e+01 3.175000e+00 3.500000e+00
         vertex -3.175000e+00 3.175000e+00 3.442283e-14
      endloop
   endfacet
   facet normal 6.982963e-15 1.000000e+00 1.047444e-14
      outer loop
         vertex -3.175000e+00 3.175000e+00 3.442283e-14
         vertex -8.641043e+01 3.175000e+00 3.500000e+00
         vertex -8.589565e+00 3.175000e+00 3.500000e+00
      endloop
   endfacet
   facet normal 6.982963e-15 1.000000e+00 1.047444e-14
      outer loop
         vertex -3.175000e+00 3.175000e+00 3.442283e-14
         vertex -8.589565e+00 3.175000e+00 3.500000e+00
         vertex -2.749631e+00 3.175000e+00 1.587500e+00
      endloop
   endfacet
   facet normal 6.982963e-15 1.000000e+00 1.047444e-14
      outer loop
         vertex -2.749631e+00 3.175000e+00 1.587500e+00
         vertex -8.589565e+00 3.175000e+00 3.500000e+00
         vertex -5.736724e+00 3.175000e+00 3.894986e+00
      endloop
   endfacet
   facet normal 6.982963e-15 1.000000e+00 1.047444e-14
      outer loop
         vertex -2.749631e+00 3.175000e+00 1.587500e+00
         vertex -5.736724e+00 3.175000e+00 3.894986e+00
         vertex -1.587500e+00 3.175000e+00 2.749631e+00
      endloop
   endfacet
   facet normal 6.982963e-15 1.000000e+00 1.047444e-14
      outer loop
         vertex -1.587500e+00 3.175000e+00 2.749631e+00
         vertex -5.736724e+00 3.175000e+00 3.894986e+00
         vertex -3.098519e+00 3.175000e+00 5.050228e+00
      endloop
   endfacet
   facet normal 6.982963e-15 1.000000e+00 1.047444e-14
      outer loop
         vertex -1.587500e+00 3.175000e+00 2.749631e+00
         vertex -3.098519e+00 3.175000e+00 5.050228e+00
         vertex 2.319408e-14 3.175000e+00 3.175000e+00
      endloop
   endfacet
   facet normal 6.982963e-15 1.000000e+00 1.047444e-14
      outer loop
         vertex 2.319408e-14 3.175000e+00 3.175000e+00
         vertex -3.098519e+00 3.175000e+00 5.050228e+00
         vertex -9.712042e-01 3.175000e+00 5.844860e+00
      endloop
   endfacet
   facet normal 6.982963e-15 1.000000e+00 1.047444e-14
      outer loop
         vertex 2.319408e-14 3.175000e+00 3.175000e+00
         vertex -9.712042e-01 3.175000e+00 5.844860e+00
         vertex 1.298777e+00 3.175000e+00 5.780900e+00
      endloop
   endfacet
   facet normal -7.314265e-29 -1.047444e-14 1.000000e+00
      outer loop
         vertex -8.589565e+00 -2.675000e+00 4.000000e+00
         vertex -8.589565e+00 2.675000e+00 4.000000e+00
         vertex -8.641043e+01 -2.675000e+00 4.000000e+00
      endloop
   endfacet
   facet normal -7.314265e-29 -1.047444e-14 1.000000e+00
      outer loop
         vertex -8.641043e+01 -2.675000e+00 4.000000e+00
         vertex -8.589565e+00 2.675000e+00 4.000000e+00
         vertex -8.641043e+01 2.675000e+00 4.000000e+00
      endloop
   endfacet
   facet normal -3.499221e-01 -7.368744e-15 9.367788e-01
      outer loop
         vertex -3.359997e+00 2.675000e+00 5.476408e+00
         vertex -3.359997e+00 -2.675000e+00 5.476408e+00
         vertex -1.053162e+00 -2.675000e+00 6.338097e+00
      endloop
   endfacet
   facet normal -3.499221e-01 -7.368744e-15 9.367788e-01
      outer loop
         vertex -3.359997e+00 2.675000e+00 5.476408e+00
         vertex -1.053162e+00 -2.675000e+00 6.338097e+00
         vertex -1.053162e+00 2.675000e+00 6.338097e+00
      endloop
   endfacet
   facet normal 2.816545e-02 -1.066697e-14 9.996033e-01
      outer loop
         vertex -1.053162e+00 2.675000e+00 6.338097e+00
         vertex -1.053162e+00 -2.675000e+00 6.338097e+00
         vertex 1.408379e+00 -2.675000e+00 6.268739e+00
      endloop
   endfacet
   facet normal 2.816545e-02 -1.066697e-14 9.996033e-01
      outer loop
         vertex -1.053162e+00 2.675000e+00 6.338097e+00
         vertex 1.408379e+00 -2.675000e+00 6.268739e+00
         vertex 1.408379e+00 2.675000e+00 6.268739e+00
      endloop
   endfacet
   facet normal 4.021151e-01 -1.239824e-14 9.155891e-01
      outer loop
         vertex 1.408379e+00 2.675000e+00 6.268739e+00
         vertex 1.408379e+00 -2.675000e+00 6.268739e+00
         vertex 3.663033e+00 -2.675000e+00 5.278524e+00
      endloop
   endfacet
   facet normal 4.021151e-01 -1.239824e-14 9.155891e-01
      outer loop
         vertex 1.408379e+00 2.675000e+00 6.268739e+00
         vertex 3.663033e+00 -2.675000e+00 5.278524e+00
         vertex 3.663033e+00 2.675000e+00 5.278524e+00
      endloop
   endfacet
   facet normal 7.169956e-01 -1.230825e-14 6.970777e-01
      outer loop
         vertex 3.663033e+00 2.675000e+00 5.278524e+00
         vertex 3.663033e+00 -2.675000e+00 5.278524e+00
         vertex 5.379600e+00 -2.675000e+00 3.512909e+00
      endloop
   endfacet
   facet normal 7.169956e-01 -1.230825e-14 6.970777e-01
      outer loop
         vertex 3.663033e+00 2.675000e+00 5.278524e+00
         vertex 5.379600e+00 -2.675000e+00 3.512909e+00
         vertex 5.379600e+00 2.675000e+00 3.512909e+00
      endloop
   endfacet
   facet normal 9.265516e-01 -1.041022e-14 3.761678e-01
      outer loop
         vertex 5.379600e+00 2.675000e+00 3.512909e+00
         vertex 5.379600e+00 -2.675000e+00 3.512909e+00
         vertex 6.305920e+00 -2.675000e+00 1.231259e+00
      endloop
   endfacet
   facet normal 9.265516e-01 -1.041022e-14 3.761678e-01
      outer loop
         vertex 5.379600e+00 2.675000e+00 3.512909e+00
         vertex 6.305920e+00 -2.675000e+00 1.231259e+00
         vertex 6.305920e+00 2.675000e+00 1.231259e+00
      endloop
   endfacet
   facet normal 1.000000e+00 -6.982963e-15 0.000000e+00
      outer loop
         vertex 6.305920e+00 2.675000e+00 1.231259e+00
         vertex 6.305920e+00 -2.675000e+00 1.231259e+00
         vertex 6.305920e+00 -2.675000e+00 -1.231259e+00
      endloop
   endfacet
   facet normal 1.000000e+00 -6.982963e-15 0.000000e+00
      outer loop
         vertex 6.305920e+00 2.675000e+00 1.231259e+00
         vertex 6.305920e+00 -2.675000e+00 -1.231259e+00
         vertex 6.305920e+00 2.675000e+00 -1.231259e+00
      endloop
   endfacet
   facet normal 9.265516e-01 -2.529926e-15 -3.761678e-01
      outer loop
         vertex 6.305920e+00 2.675000e+00 -1.231259e+00
         vertex 6.305920e+00 -2.675000e+00 -1.231259e+00
         vertex 5.379600e+00 -2.675000e+00 -3.512909e+00
      endloop
   endfacet
   facet normal 9.265516e-01 -2.529926e-15 -3.761678e-01
      outer loop
         vertex 6.305920e+00 2.675000e+00 -1.231259e+00
         vertex 5.379600e+00 -2.675000e+00 -3.512909e+00
         vertex 5.379600e+00 2.675000e+00 -3.512909e+00
      endloop
   endfacet
   facet normal 7.169956e-01 2.294748e-15 -6.970777e-01
      outer loop
         vertex 5.379600e+00 2.675000e+00 -3.512909e+00
         vertex 5.379600e+00 -2.675000e+00 -3.512909e+00
         vertex 3.663033e+00 -2.675000e+00 -5.278524e+00
      endloop
   endfacet
   facet normal 7.169956e-01 2.294748e-15 -6.970777e-01
      outer loop
         vertex 5.379600e+00 2.675000e+00 -3.512909e+00
         vertex 3.663033e+00 -2.675000e+00 -5.278524e+00
         vertex 3.663033e+00 2.675000e+00 -5.278524e+00
      endloop
   endfacet
   facet normal 4.021151e-01 6.782332e-15 -9.155891e-01
      outer loop
         vertex 3.663033e+00 2.675000e+00 -5.278524e+00
         vertex 3.663033e+00 -2.675000e+00 -5.278524e+00
         vertex 1.408379e+00 -2.675000e+00 -6.268739e+00
      endloop
   endfacet
   facet normal 4.021151e-01 6.782332e-15 -9.155891e-01
      outer loop
         vertex 3.663033e+00 2.675000e+00 -5.278524e+00
         vertex 1.408379e+00 -2.675000e+00 -6.268739e+00
         vertex 1.408379e+00 2.675000e+00 -6.268739e+00
      endloop
   endfacet
   facet normal 2.816545e-02 1.027361e-14 -9.996033e-01
      outer loop
         vertex 1.408379e+00 2.675000e+00 -6.268739e+00
         vertex 1.408379e+00 -2.675000e+00 -6.268739e+00
         vertex -1.053162e+00 -2.675000e+00 -6.338097e+00
      endloop
   endfacet
   facet normal 2.816545e-02 1.027361e-14 -9.996033e-01
      outer loop
         vertex 1.408379e+00 2.675000e+00 -6.268739e+00
         vertex -1.053162e+00 -2.675000e+00 -6.338097e+00
         vertex -1.053162e+00 2.675000e+00 -6.338097e+00
      endloop
   endfacet
   facet normal -3.499221e-01 1.225573e-14 -9.367788e-01
      outer loop
         vertex -1.053162e+00 2.675000e+00 -6.338097e+00
         vertex -1.053162e+00 -2.675000e+00 -6.338097e+00
         vertex -3.359997e+00 -2.675000e+00 -5.476408e+00
      endloop
   endfacet
   facet normal -3.499221e-01 1.225573e-14 -9.367788e-01
      outer loop
         vertex -1.053162e+00 2.675000e+00 -6.338097e+00
         vertex -3.359997e+00 -2.675000e+00 -5.476408e+00
         vertex -3.359997e+00 2.675000e+00 -5.476408e+00
      endloop
   endfacet
   facet normal 7.314265e-29 1.047444e-14 -1.000000e+00
      outer loop
         vertex -8.641043e+01 -2.675000e+00 -4.000000e+00
         vertex -8.641043e+01 2.675000e+00 -4.000000e+00
         vertex -8.589565e+00 -2.675000e+00 -4.000000e+00
      endloop
   endfacet
   facet normal 7.314265e-29 1.047444e-14 -1.000000e+00
      outer loop
         vertex -8.589565e+00 -2.675000e+00 -4.000000e+00
         vertex -8.641043e+01 2.675000e+00 -4.000000e+00
         vertex -8.589565e+00 2.675000e+00 -4.000000e+00
      endloop
   endfacet
   facet normal -9.659258e-01 9.456009e-15 -2.588190e-01
      outer loop
         vertex 3.175000e+00 3.175000e+00 3.247871e-14
         vertex 3.175000e+00 -3.175000e+00 -3.403401e-14
         vertex 2.749631e+00 3.175000e+00 1.587500e+00
      endloop
   endfacet
   facet normal -9.659258e-01 9.456009e-15 -2.588190e-01
      outer loop
         vertex 2.749631e+00 3.175000e+00 1.587500e+00
         vertex 3.175000e+00 -3.175000e+00 -3.403401e-14
         vertex 2.749631e+00 -3.175000e+00 1.587500e+00
      endloop
   endfacet
   facet normal -7.071068e-01 1.234425e-14 -7.071068e-01
      outer loop
         vertex 2.749631e+00 3.175000e+00 1.587500e+00
         vertex 2.749631e+00 -3.175000e+00 1.587500e+00
         vertex 1.587500e+00 3.175000e+00 2.749631e+00
      endloop
   endfacet
   facet normal -7.071068e-01 1.234425e-14 -7.071068e-01
      outer loop
         vertex 1.587500e+00 3.175000e+00 2.749631e+00
         vertex 2.749631e+00 -3.175000e+00 1.587500e+00
         vertex 1.587500e+00 -3.175000e+00 2.749631e+00
      endloop
   endfacet
   facet normal -2.588190e-01 1.192486e-14 -9.659258e-01
      outer loop
         vertex 1.587500e+00 3.175000e+00 2.749631e+00
         vertex 1.587500e+00 -3.175000e+00 2.749631e+00
         vertex 2.319408e-14 3.175000e+00 3.175000e+00
      endloop
   endfacet
   facet normal -2.588190e-01 1.192486e-14 -9.659258e-01
      outer loop
         vertex 2.319408e-14 3.175000e+00 3.175000e+00
         vertex 1.587500e+00 -3.175000e+00 2.749631e+00
         vertex -2.114774e-14 -3.175000e+00 3.175000e+00
      endloop
   endfacet
   facet normal 2.588190e-01 8.310213e-15 -9.659258e-01
      outer loop
         vertex 2.319408e-14 3.175000e+00 3.175000e+00
         vertex -2.114774e-14 -3.175000e+00 3.175000e+00
         vertex -1.587500e+00 3.175000e+00 2.749631e+00
      endloop
   endfacet
   facet normal 2.588190e-01 8.310213e-15 -9.659258e-01
      outer loop
         vertex -1.587500e+00 3.175000e+00 2.749631e+00
         vertex -2.114774e-14 -3.175000e+00 3.175000e+00
         vertex -1.587500e+00 -3.175000e+00 2.749631e+00
      endloop
   endfacet
   facet normal 7.071068e-01 2.468850e-15 -7.071068e-01
      outer loop
         vertex -1.587500e+00 3.175000e+00 2.749631e+00
         vertex -1.587500e+00 -3.175000e+00 2.749631e+00
         vertex -2.749631e+00 3.175000e+00 1.587500e+00
      endloop
   endfacet
   facet normal 7.071068e-01 2.468850e-15 -7.071068e-01
      outer loop
         vertex -2.749631e+00 3.175000e+00 1.587500e+00
         vertex -1.587500e+00 -3.175000e+00 2.749631e+00
         vertex -2.749631e+00 -3.175000e+00 1.587500e+00
      endloop
   endfacet
   facet normal 9.659258e-01 -4.034039e-15 -2.588190e-01
      outer loop
         vertex -2.749631e+00 3.175000e+00 1.587500e+00
         vertex -2.749631e+00 -3.175000e+00 1.587500e+00
         vertex -3.175000e+00 3.175000e+00 3.505517e-14
      endloop
   endfacet
   facet normal 9.659258e-01 -4.034039e-15 -2.588190e-01
      outer loop
         vertex -3.175000e+00 3.175000e+00 3.505517e-14
         vertex -2.749631e+00 -3.175000e+00 1.587500e+00
         vertex -3.175000e+00 -3.175000e+00 -3.145755e-14
      endloop
   endfacet
   facet normal 9.659258e-01 -9.456009e-15 2.588190e-01
      outer loop
         vertex -3.175000e+00 3.175000e+00 3.505517e-14
         vertex -3.175000e+00 -3.175000e+00 -3.145755e-14
         vertex -2.749631e+00 3.175000e+00 -1.587500e+00
      endloop
   endfacet
   facet normal 9.659258e-01 -9.456009e-15 2.588190e-01
      outer loop
         vertex -2.749631e+00 3.175000e+00 -1.587500e+00
         vertex -3.175000e+00 -3.175000e+00 -3.145755e-14
         vertex -2.749631e+00 -3.175000e+00 -1.587500e+00
      endloop
   endfacet
   facet normal 7.071068e-01 -1.234425e-14 7.071068e-01
      outer loop
         vertex -2.749631e+00 3.175000e+00 -1.587500e+00
         vertex -2.749631e+00 -3.175000e+00 -1.587500e+00
         vertex -1.587500e+00 3.175000e+00 -2.749631e+00
      endloop
   endfacet
   facet normal 7.071068e-01 -1.234425e-14 7.071068e-01
      outer loop
         vertex -1.587500e+00 3.175000e+00 -2.749631e+00
         vertex -2.749631e+00 -3.175000e+00 -1.587500e+00
         vertex -1.587500e+00 -3.175000e+00 -2.749631e+00
      endloop
   endfacet
   facet normal 2.588190e-01 -1.192486e-14 9.659258e-01
      outer loop
         vertex -1.587500e+00 3.175000e+00 -2.749631e+00
         vertex -1.587500e+00 -3.175000e+00 -2.749631e+00
         vertex 1.889147e-14 3.175000e+00 -3.175000e+00
      endloop
   endfacet
   facet normal 2.588190e-01 -1.192486e-14 9.659258e-01
      outer loop
         vertex 1.889147e-14 3.175000e+00 -3.175000e+00
         vertex -1.587500e+00 -3.175000e+00 -2.749631e+00
         vertex -2.545034e-14 -3.175000e+00 -3.175000e+00
      endloop
   endfacet
   facet normal -2.588190e-01 -8.310213e-15 9.659258e-01
      outer loop
         vertex 1.889147e-14 3.175000e+00 -3.175000e+00
         vertex -2.545034e-14 -3.175000e+00 -3.175000e+00
         vertex 1.587500e+00 3.175000e+00 -2.749631e+00
      endloop
   endfacet
   facet normal -2.588190e-01 -8.310213e-15 9.659258e-01
      outer loop
         vertex 1.587500e+00 3.175000e+00 -2.749631e+00
         vertex -2.545034e-14 -3.175000e+00 -3.175000e+00
         vertex 1.587500e+00 -3.175000e+00 -2.749631e+00
      endloop
   endfacet
   facet normal -7.071068e-01 -2.468850e-15 7.071068e-01
      outer loop
         vertex 1.587500e+00 3.175000e+00 -2.749631e+00
         vertex 1.587500e+00 -3.175000e+00 -2.749631e+00
         vertex 2.749631e+00 3.175000e+00 -1.587500e+00
      endloop
   endfacet
   facet normal -7.071068e-01 -2.468850e-15 7.071068e-01
      outer loop
         vertex 2.749631e+00 3.175000e+00 -1.587500e+00
         vertex 1.587500e+00 -3.175000e+00 -2.749631e+00
         vertex 2.749631e+00 -3.175000e+00 -1.587500e+00
      endloop
   endfacet
   facet normal -9.659258e-01 4.034039e-15 2.588190e-01
      outer loop
         vertex 2.749631e+00 3.175000e+00 -1.587500e+00
         vertex 2.749631e+00 -3.175000e+00 -1.587500e+00
         vertex 3.175000e+00 3.175000e+00 3.247871e-14
      endloop
   endfacet
   facet normal -9.659258e-01 4.034039e-15 2.588190e-01
      outer loop
         vertex 3.175000e+00 3.175000e+00 3.247871e-14
         vertex 2.749631e+00 -3.175000e+00 -1.587500e+00
         vertex 3.175000e+00 -3.175000e+00 -3.403401e-14
      endloop
   endfacet
   facet normal 4.011183e-01 -1.239586e-14 9.160262e-01
      outer loop
         vertex -9.164000e+01 2.675000e+00 5.476408e+00
         vertex -9.164000e+01 -2.675000e+00 5.476408e+00
         vertex -8.912743e+01 2.675000e+00 4.376178e+00
      endloop
   endfacet
   facet normal 4.011183e-01 -1.239586e-14 9.160262e-01
      outer loop
         vertex -8.912743e+01 2.675000e+00 4.376178e+00
         vertex -9.164000e+01 -2.675000e+00 5.476408e+00
         vertex -8.912743e+01 -2.675000e+00 4.376178e+00
      endloop
   endfacet
   facet normal 1.371452e-01 -1.133315e-14 9.905510e-01
      outer loop
         vertex -8.912743e+01 2.675000e+00 4.376178e+00
         vertex -8.912743e+01 -2.675000e+00 4.376178e+00
         vertex -8.641043e+01 2.675000e+00 4.000000e+00
      endloop
   endfacet
   facet normal 1.371452e-01 -1.133315e-14 9.905510e-01
      outer loop
         vertex -8.641043e+01 2.675000e+00 4.000000e+00
         vertex -8.912743e+01 -2.675000e+00 4.376178e+00
         vertex -8.641043e+01 -2.675000e+00 4.000000e+00
      endloop
   endfacet
   facet normal 1.371452e-01 9.417791e-15 -9.905510e-01
      outer loop
         vertex -8.641043e+01 2.675000e+00 -4.000000e+00
         vertex -8.641043e+01 -2.675000e+00 -4.000000e+00
         vertex -8.912743e+01 2.675000e+00 -4.376178e+00
      endloop
   endfacet
   facet normal 1.371452e-01 9.417791e-15 -9.905510e-01
      outer loop
         vertex -8.912743e+01 2.675000e+00 -4.376178e+00
         vertex -8.641043e+01 -2.675000e+00 -4.000000e+00
         vertex -8.912743e+01 -2.675000e+00 -4.376178e+00
      endloop
   endfacet
   facet normal 4.011183e-01 6.793871e-15 -9.160262e-01
      outer loop
         vertex -8.912743e+01 2.675000e+00 -4.376178e+00
         vertex -8.912743e+01 -2.675000e+00 -4.376178e+00
         vertex -9.164000e+01 2.675000e+00 -5.476408e+00
      endloop
   endfacet
   facet normal 4.011183e-01 6.793871e-15 -9.160262e-01
      outer loop
         vertex -9.164000e+01 2.675000e+00 -5.476408e+00
         vertex -8.912743e+01 -2.675000e+00 -4.376178e+00
         vertex -9.164000e+01 -2.675000e+00 -5.476408e+00
      endloop
   endfacet
   facet normal -4.011180e-01 1.239586e-14 -9.160264e-01
      outer loop
         vertex -3.359997e+00 2.675000e+00 -5.476408e+00
         vertex -3.359997e+00 -2.675000e+00 -5.476408e+00
         vertex -5.872574e+00 2.675000e+00 -4.376178e+00
      endloop
   endfacet
   facet normal -4.011180e-01 1.239586e-14 -9.160264e-01
      outer loop
         vertex -5.872574e+00 2.675000e+00 -4.376178e+00
         vertex -3.359997e+00 -2.675000e+00 -5.476408e+00
         vertex -5.872574e+00 -2.675000e+00 -4.376178e+00
      endloop
   endfacet
   facet normal -1.371455e-01 1.133315e-14 -9.905509e-01
      outer loop
         vertex -5.872574e+00 2.675000e+00 -4.376178e+00
         vertex -5.872574e+00 -2.675000e+00 -4.376178e+00
         vertex -8.589565e+00 2.675000e+00 -4.000000e+00
      endloop
   endfacet
   facet normal -1.371455e-01 1.133315e-14 -9.905509e-01
      outer loop
         vertex -8.589565e+00 2.675000e+00 -4.000000e+00
         vertex -5.872574e+00 -2.675000e+00 -4.376178e+00
         vertex -8.589565e+00 -2.675000e+00 -4.000000e+00
      endloop
   endfacet
   facet normal -1.371455e-01 -9.417788e-15 9.905509e-01
      outer loop
         vertex -8.589565e+00 2.675000e+00 4.000000e+00
         vertex -8.589565e+00 -2.675000e+00 4.000000e+00
         vertex -5.872574e+00 2.675000e+00 4.376178e+00
      endloop
   endfacet
   facet normal -1.371455e-01 -9.417788e-15 9.905509e-01
      outer loop
         vertex -5.872574e+00 2.675000e+00 4.376178e+00
         vertex -8.589565e+00 -2.675000e+00 4.000000e+00
         vertex -5.872574e+00 -2.675000e+00 4.376178e+00
      endloop
   endfacet
   facet normal -4.011180e-01 -6.793876e-15 9.160264e-01
      outer loop
         vertex -5.872574e+00 2.675000e+00 4.376178e+00
         vertex -5.872574e+00 -2.675000e+00 4.376178e+00
         vertex -3.359997e+00 2.675000e+00 5.476408e+00
      endloop
   endfacet
   facet normal -4.011180e-01 -6.793876e-15 9.160264e-01
      outer loop
         vertex -3.359997e+00 2.675000e+00 5.476408e+00
         vertex -5.872574e+00 -2.675000e+00 4.376178e+00
         vertex -3.359997e+00 -2.675000e+00 5.476408e+00
      endloop
   endfacet
   facet normal -4.937701e-15 -7.071068e-01 7.071067e-01
      outer loop
         vertex -8.589565e+00 -3.175000e+00 3.500000e+00
         vertex -8.589565e+00 -2.675000e+00 4.000000e+00
         vertex -8.641043e+01 -3.175000e+00 3.500000e+00
      endloop
   endfacet
   facet normal -4.937701e-15 -7.071068e-01 7.071067e-01
      outer loop
         vertex -8.641043e+01 -3.175000e+00 3.500000e+00
         vertex -8.589565e+00 -2.675000e+00 4.000000e+00
         vertex -8.641043e+01 -2.675000e+00 4.000000e+00
      endloop
   endfacet
   facet normal -9.743573e-02 -7.037423e-01 7.037422e-01
      outer loop
         vertex -8.589565e+00 -2.675000e+00 4.000000e+00
         vertex -8.589565e+00 -3.175000e+00 3.500000e+00
         vertex -5.872574e+00 -2.675000e+00 4.376178e+00
      endloop
   endfacet
   facet normal -9.743568e-02 -7.037424e-01 7.037421e-01
      outer loop
         vertex -5.872574e+00 -2.675000e+00 4.376178e+00
         vertex -8.589565e+00 -3.175000e+00 3.500000e+00
         vertex -5.736724e+00 -3.175000e+00 3.894986e+00
      endloop
   endfacet
   facet normal -2.849764e-01 -7.037424e-01 6.507957e-01
      outer loop
         vertex -5.872574e+00 -2.675000e+00 4.376178e+00
         vertex -5.736724e+00 -3.175000e+00 3.894986e+00
         vertex -3.359997e+00 -2.675000e+00 5.476408e+00
      endloop
   endfacet
   facet normal -2.849766e-01 -7.037420e-01 6.507961e-01
      outer loop
         vertex -3.359997e+00 -2.675000e+00 5.476408e+00
         vertex -5.736724e+00 -3.175000e+00 3.894986e+00
         vertex -3.098519e+00 -3.175000e+00 5.050228e+00
      endloop
   endfacet
   facet normal 2.849768e-01 -7.037419e-01 6.507961e-01
      outer loop
         vertex -9.164000e+01 -2.675000e+00 5.476408e+00
         vertex -9.190148e+01 -3.175000e+00 5.050228e+00
         vertex -8.912743e+01 -2.675000e+00 4.376178e+00
      endloop
   endfacet
   facet normal 2.849768e-01 -7.037415e-01 6.507966e-01
      outer loop
         vertex -8.912743e+01 -2.675000e+00 4.376178e+00
         vertex -9.190148e+01 -3.175000e+00 5.050228e+00
         vertex -8.926328e+01 -3.175000e+00 3.894986e+00
      endloop
   endfacet
   facet normal 9.743558e-02 -7.037420e-01 7.037425e-01
      outer loop
         vertex -8.912743e+01 -2.675000e+00 4.376178e+00
         vertex -8.926328e+01 -3.175000e+00 3.894986e+00
         vertex -8.641043e+01 -2.675000e+00 4.000000e+00
      endloop
   endfacet
   facet normal 9.743563e-02 -7.037423e-01 7.037422e-01
      outer loop
         vertex -8.641043e+01 -2.675000e+00 4.000000e+00
         vertex -8.926328e+01 -3.175000e+00 3.894986e+00
         vertex -8.641043e+01 -3.175000e+00 3.500000e+00
      endloop
   endfacet
   facet normal -2.497358e-01 -7.004619e-01 -6.685695e-01
      outer loop
         vertex -3.098519e+00 -3.175000e+00 -5.050228e+00
         vertex -3.359997e+00 -2.675000e+00 -5.476408e+00
         vertex -1.053162e+00 -2.675000e+00 -6.338097e+00
      endloop
   endfacet
   facet normal -2.497356e-01 -7.004622e-01 -6.685692e-01
      outer loop
         vertex -3.098519e+00 -3.175000e+00 -5.050228e+00
         vertex -1.053162e+00 -2.675000e+00 -6.338097e+00
         vertex -9.712042e-01 -3.175000e+00 -5.844860e+00
      endloop
   endfacet
   facet normal 2.010138e-02 -7.004622e-01 -7.134063e-01
      outer loop
         vertex -9.712042e-01 -3.175000e+00 -5.844860e+00
         vertex -1.053162e+00 -2.675000e+00 -6.338097e+00
         vertex 1.408379e+00 -2.675000e+00 -6.268739e+00
      endloop
   endfacet
   facet normal 2.010125e-02 -7.004619e-01 -7.134067e-01
      outer loop
         vertex -9.712042e-01 -3.175000e+00 -5.844860e+00
         vertex 1.408379e+00 -2.675000e+00 -6.268739e+00
         vertex 1.298777e+00 -3.175000e+00 -5.780900e+00
      endloop
   endfacet
   facet normal 2.869854e-01 -7.004619e-01 -6.534466e-01
      outer loop
         vertex 1.298777e+00 -3.175000e+00 -5.780900e+00
         vertex 1.408379e+00 -2.675000e+00 -6.268739e+00
         vertex 3.663033e+00 -2.675000e+00 -5.278524e+00
      endloop
   endfacet
   facet normal 2.869854e-01 -7.004620e-01 -6.534465e-01
      outer loop
         vertex 1.298777e+00 -3.175000e+00 -5.780900e+00
         vertex 3.663033e+00 -2.675000e+00 -5.278524e+00
         vertex 3.377972e+00 -3.175000e+00 -4.867744e+00
      endloop
   endfacet
   facet normal 5.117123e-01 -7.004621e-01 -4.974971e-01
      outer loop
         vertex 3.377972e+00 -3.175000e+00 -4.867744e+00
         vertex 3.663033e+00 -2.675000e+00 -5.278524e+00
         vertex 5.379600e+00 -2.675000e+00 -3.512909e+00
      endloop
   endfacet
   facet normal 5.117123e-01 -7.004620e-01 -4.974972e-01
      outer loop
         vertex 3.377972e+00 -3.175000e+00 -4.867744e+00
         vertex 5.379600e+00 -2.675000e+00 -3.512909e+00
         vertex 4.960954e+00 -3.175000e+00 -3.239531e+00
      endloop
   endfacet
   facet normal 6.612703e-01 -7.004620e-01 -2.684671e-01
      outer loop
         vertex 4.960954e+00 -3.175000e+00 -3.239531e+00
         vertex 5.379600e+00 -2.675000e+00 -3.512909e+00
         vertex 6.305920e+00 -2.675000e+00 -1.231259e+00
      endloop
   endfacet
   facet normal 6.612703e-01 -7.004621e-01 -2.684671e-01
      outer loop
         vertex 4.960954e+00 -3.175000e+00 -3.239531e+00
         vertex 6.305920e+00 -2.675000e+00 -1.231259e+00
         vertex 5.815187e+00 -3.175000e+00 -1.135441e+00
      endloop
   endfacet
   facet normal 7.136897e-01 -7.004620e-01 -7.336950e-15
      outer loop
         vertex 5.815187e+00 -3.175000e+00 -1.135441e+00
         vertex 6.305920e+00 -2.675000e+00 -1.231259e+00
         vertex 6.305920e+00 -2.675000e+00 1.231259e+00
      endloop
   endfacet
   facet normal 7.136897e-01 -7.004620e-01 -7.336950e-15
      outer loop
         vertex 5.815187e+00 -3.175000e+00 -1.135441e+00
         vertex 6.305920e+00 -2.675000e+00 1.231259e+00
         vertex 5.815187e+00 -3.175000e+00 1.135441e+00
      endloop
   endfacet
   facet normal 6.612703e-01 -7.004621e-01 2.684671e-01
      outer loop
         vertex 5.815187e+00 -3.175000e+00 1.135441e+00
         vertex 6.305920e+00 -2.675000e+00 1.231259e+00
         vertex 5.379600e+00 -2.675000e+00 3.512909e+00
      endloop
   endfacet
   facet normal 6.612703e-01 -7.004620e-01 2.684671e-01
      outer loop
         vertex 5.815187e+00 -3.175000e+00 1.135441e+00
         vertex 5.379600e+00 -2.675000e+00 3.512909e+00
         vertex 4.960954e+00 -3.175000e+00 3.239531e+00
      endloop
   endfacet
   facet normal 5.117123e-01 -7.004620e-01 4.974972e-01
      outer loop
         vertex 4.960954e+00 -3.175000e+00 3.239531e+00
         vertex 5.379600e+00 -2.675000e+00 3.512909e+00
         vertex 3.663033e+00 -2.675000e+00 5.278524e+00
      endloop
   endfacet
   facet normal 5.117123e-01 -7.004621e-01 4.974971e-01
      outer loop
         vertex 4.960954e+00 -3.175000e+00 3.239531e+00
         vertex 3.663033e+00 -2.675000e+00 5.278524e+00
         vertex 3.377972e+00 -3.175000e+00 4.867744e+00
      endloop
   endfacet
   facet normal 2.869854e-01 -7.004620e-01 6.534465e-01
      outer loop
         vertex 3.377972e+00 -3.175000e+00 4.867744e+00
         vertex 3.663033e+00 -2.675000e+00 5.278524e+00
         vertex 1.408379e+00 -2.675000e+00 6.268739e+00
      endloop
   endfacet
   facet normal 2.869855e-01 -7.004619e-01 6.534466e-01
      outer loop
         vertex 3.377972e+00 -3.175000e+00 4.867744e+00
         vertex 1.408379e+00 -2.675000e+00 6.268739e+00
         vertex 1.298777e+00 -3.175000e+00 5.780900e+00
      endloop
   endfacet
   facet normal 2.010139e-02 -7.004619e-01 7.134067e-01
      outer loop
         vertex 1.298777e+00 -3.175000e+00 5.780900e+00
         vertex 1.408379e+00 -2.675000e+00 6.268739e+00
         vertex -1.053162e+00 -2.675000e+00 6.338097e+00
      endloop
   endfacet
   facet normal 2.010124e-02 -7.004622e-01 7.134063e-01
      outer loop
         vertex 1.298777e+00 -3.175000e+00 5.780900e+00
         vertex -1.053162e+00 -2.675000e+00 6.338097e+00
         vertex -9.712042e-01 -3.175000e+00 5.844860e+00
      endloop
   endfacet
   facet normal -2.497357e-01 -7.004622e-01 6.685692e-01
      outer loop
         vertex -9.712042e-01 -3.175000e+00 5.844860e+00
         vertex -1.053162e+00 -2.675000e+00 6.338097e+00
         vertex -3.359997e+00 -2.675000e+00 5.476408e+00
      endloop
   endfacet
   facet normal -2.497357e-01 -7.004619e-01 6.685696e-01
      outer loop
         vertex -9.712042e-01 -3.175000e+00 5.844860e+00
         vertex -3.359997e+00 -2.675000e+00 5.476408e+00
         vertex -3.098519e+00 -3.175000e+00 5.050228e+00
      endloop
   endfacet
   facet normal 2.497359e-01 -7.004618e-01 6.685695e-01
      outer loop
         vertex -9.190148e+01 -3.175000e+00 5.050228e+00
         vertex -9.164000e+01 -2.675000e+00 5.476408e+00
         vertex -9.394684e+01 -2.675000e+00 6.338097e+00
      endloop
   endfacet
   facet normal 2.497360e-01 -7.004618e-01 6.685696e-01
      outer loop
         vertex -9.190148e+01 -3.175000e+00 5.050228e+00
         vertex -9.394684e+01 -2.675000e+00 6.338097e+00
         vertex -9.402879e+01 -3.175000e+00 5.844860e+00
      endloop
   endfacet
   facet normal -2.010135e-02 -7.004623e-01 7.134063e-01
      outer loop
         vertex -9.402879e+01 -3.175000e+00 5.844860e+00
         vertex -9.394684e+01 -2.675000e+00 6.338097e+00
         vertex -9.640838e+01 -2.675000e+00 6.268739e+00
      endloop
   endfacet
   facet normal -2.010123e-02 -7.004620e-01 7.134066e-01
      outer loop
         vertex -9.402879e+01 -3.175000e+00 5.844860e+00
         vertex -9.640838e+01 -2.675000e+00 6.268739e+00
         vertex -9.629878e+01 -3.175000e+00 5.780900e+00
      endloop
   endfacet
   facet normal -2.869855e-01 -7.004630e-01 6.534454e-01
      outer loop
         vertex -9.629878e+01 -3.175000e+00 5.780900e+00
         vertex -9.640838e+01 -2.675000e+00 6.268739e+00
         vertex -9.866303e+01 -2.675000e+00 5.278524e+00
      endloop
   endfacet
   facet normal -2.869855e-01 -7.004615e-01 6.534471e-01
      outer loop
         vertex -9.629878e+01 -3.175000e+00 5.780900e+00
         vertex -9.866303e+01 -2.675000e+00 5.278524e+00
         vertex -9.837797e+01 -3.175000e+00 4.867744e+00
      endloop
   endfacet
   facet normal -5.117126e-01 -7.004612e-01 4.974981e-01
      outer loop
         vertex -9.837797e+01 -3.175000e+00 4.867744e+00
         vertex -9.866303e+01 -2.675000e+00 5.278524e+00
         vertex -1.003796e+02 -2.675000e+00 3.512909e+00
      endloop
   endfacet
   facet normal -5.117117e-01 -7.004633e-01 4.974960e-01
      outer loop
         vertex -9.837797e+01 -3.175000e+00 4.867744e+00
         vertex -1.003796e+02 -2.675000e+00 3.512909e+00
         vertex -9.996095e+01 -3.175000e+00 3.239531e+00
      endloop
   endfacet
   facet normal -6.612694e-01 -7.004635e-01 2.684655e-01
      outer loop
         vertex -9.996095e+01 -3.175000e+00 3.239531e+00
         vertex -1.003796e+02 -2.675000e+00 3.512909e+00
         vertex -1.013059e+02 -2.675000e+00 1.231259e+00
      endloop
   endfacet
   facet normal -6.612707e-01 -7.004618e-01 2.684668e-01
      outer loop
         vertex -9.996095e+01 -3.175000e+00 3.239531e+00
         vertex -1.013059e+02 -2.675000e+00 1.231259e+00
         vertex -1.008152e+02 -3.175000e+00 1.135441e+00
      endloop
   endfacet
   facet normal -7.136900e-01 -7.004617e-01 -7.336947e-15
      outer loop
         vertex -1.008152e+02 -3.175000e+00 1.135441e+00
         vertex -1.013059e+02 -2.675000e+00 1.231259e+00
         vertex -1.013059e+02 -2.675000e+00 -1.231259e+00
      endloop
   endfacet
   facet normal -7.136900e-01 -7.004617e-01 -7.336947e-15
      outer loop
         vertex -1.008152e+02 -3.175000e+00 1.135441e+00
         vertex -1.013059e+02 -2.675000e+00 -1.231259e+00
         vertex -1.008152e+02 -3.175000e+00 -1.135441e+00
      endloop
   endfacet
   facet normal -6.612709e-01 -7.004618e-01 -2.684661e-01
      outer loop
         vertex -1.008152e+02 -3.175000e+00 -1.135441e+00
         vertex -1.013059e+02 -2.675000e+00 -1.231259e+00
         vertex -1.003796e+02 -2.675000e+00 -3.512909e+00
      endloop
   endfacet
   facet normal -6.612690e-01 -7.004636e-01 -2.684661e-01
      outer loop
         vertex -1.008152e+02 -3.175000e+00 -1.135441e+00
         vertex -1.003796e+02 -2.675000e+00 -3.512909e+00
         vertex -9.996095e+01 -3.175000e+00 -3.239531e+00
      endloop
   endfacet
   facet normal -5.117111e-01 -7.004632e-01 -4.974967e-01
      outer loop
         vertex -9.996095e+01 -3.175000e+00 -3.239531e+00
         vertex -1.003796e+02 -2.675000e+00 -3.512909e+00
         vertex -9.866303e+01 -2.675000e+00 -5.278524e+00
      endloop
   endfacet
   facet normal -5.117133e-01 -7.004611e-01 -4.974976e-01
      outer loop
         vertex -9.996095e+01 -3.175000e+00 -3.239531e+00
         vertex -9.866303e+01 -2.675000e+00 -5.278524e+00
         vertex -9.837797e+01 -3.175000e+00 -4.867744e+00
      endloop
   endfacet
   facet normal -2.869861e-01 -7.004615e-01 -6.534467e-01
      outer loop
         vertex -9.837797e+01 -3.175000e+00 -4.867744e+00
         vertex -9.866303e+01 -2.675000e+00 -5.278524e+00
         vertex -9.640838e+01 -2.675000e+00 -6.268739e+00
      endloop
   endfacet
   facet normal -2.869849e-01 -7.004631e-01 -6.534456e-01
      outer loop
         vertex -9.837797e+01 -3.175000e+00 -4.867744e+00
         vertex -9.640838e+01 -2.675000e+00 -6.268739e+00
         vertex -9.629878e+01 -3.175000e+00 -5.780900e+00
      endloop
   endfacet
   facet normal -2.010136e-02 -7.004620e-01 -7.134066e-01
      outer loop
         vertex -9.629878e+01 -3.175000e+00 -5.780900e+00
         vertex -9.640838e+01 -2.675000e+00 -6.268739e+00
         vertex -9.394684e+01 -2.675000e+00 -6.338097e+00
      endloop
   endfacet
   facet normal -2.010123e-02 -7.004623e-01 -7.134063e-01
      outer loop
         vertex -9.629878e+01 -3.175000e+00 -5.780900e+00
         vertex -9.394684e+01 -2.675000e+00 -6.338097e+00
         vertex -9.402879e+01 -3.175000e+00 -5.844860e+00
      endloop
   endfacet
   facet normal 2.497360e-01 -7.004618e-01 -6.685696e-01
      outer loop
         vertex -9.402879e+01 -3.175000e+00 -5.844860e+00
         vertex -9.394684e+01 -2.675000e+00 -6.338097e+00
         vertex -9.164000e+01 -2.675000e+00 -5.476408e+00
      endloop
   endfacet
   facet normal 2.497360e-01 -7.004618e-01 -6.685695e-01
      outer loop
         vertex -9.402879e+01 -3.175000e+00 -5.844860e+00
         vertex -9.164000e+01 -2.675000e+00 -5.476408e+00
         vertex -9.190148e+01 -3.175000e+00 -5.050228e+00
      endloop
   endfacet
   facet normal -2.849765e-01 -7.037420e-01 -6.507961e-01
      outer loop
         vertex -3.359997e+00 -2.675000e+00 -5.476408e+00
         vertex -3.098519e+00 -3.175000e+00 -5.050228e+00
         vertex -5.872574e+00 -2.675000e+00 -4.376178e+00
      endloop
   endfacet
   facet normal -2.849765e-01 -7.037424e-01 -6.507957e-01
      outer loop
         vertex -5.872574e+00 -2.675000e+00 -4.376178e+00
         vertex -3.098519e+00 -3.175000e+00 -5.050228e+00
         vertex -5.736724e+00 -3.175000e+00 -3.894986e+00
      endloop
   endfacet
   facet normal -9.743572e-02 -7.037424e-01 -7.037421e-01
      outer loop
         vertex -5.872574e+00 -2.675000e+00 -4.376178e+00
         vertex -5.736724e+00 -3.175000e+00 -3.894986e+00
         vertex -8.589565e+00 -2.675000e+00 -4.000000e+00
      endloop
   endfacet
   facet normal -9.743570e-02 -7.037423e-01 -7.037422e-01
      outer loop
         vertex -8.589565e+00 -2.675000e+00 -4.000000e+00
         vertex -5.736724e+00 -3.175000e+00 -3.894986e+00
         vertex -8.589565e+00 -3.175000e+00 -3.500000e+00
      endloop
   endfacet
   facet normal 9.743555e-02 -7.037423e-01 -7.037422e-01
      outer loop
         vertex -8.641043e+01 -2.675000e+00 -4.000000e+00
         vertex -8.641043e+01 -3.175000e+00 -3.500000e+00
         vertex -8.912743e+01 -2.675000e+00 -4.376178e+00
      endloop
   endfacet
   facet normal 9.743567e-02 -7.037421e-01 -7.037424e-01
      outer loop
         vertex -8.912743e+01 -2.675000e+00 -4.376178e+00
         vertex -8.641043e+01 -3.175000e+00 -3.500000e+00
         vertex -8.926328e+01 -3.175000e+00 -3.894986e+00
      endloop
   endfacet
   facet normal 2.849770e-01 -7.037414e-01 -6.507965e-01
      outer loop
         vertex -8.912743e+01 -2.675000e+00 -4.376178e+00
         vertex -8.926328e+01 -3.175000e+00 -3.894986e+00
         vertex -9.164000e+01 -2.675000e+00 -5.476408e+00
      endloop
   endfacet
   facet normal 2.849767e-01 -7.037419e-01 -6.507961e-01
      outer loop
         vertex -9.164000e+01 -2.675000e+00 -5.476408e+00
         vertex -8.926328e+01 -3.175000e+00 -3.894986e+00
         vertex -9.190148e+01 -3.175000e+00 -5.050228e+00
      endloop
   endfacet
   facet normal -4.953463e-15 -7.071068e-01 -7.071067e-01
      outer loop
         vertex -8.641043e+01 -3.175000e+00 -3.500000e+00
         vertex -8.641043e+01 -2.675000e+00 -4.000000e+00
         vertex -8.589565e+00 -3.175000e+00 -3.500000e+00
      endloop
   endfacet
   facet normal -4.937701e-15 -7.071068e-01 -7.071067e-01
      outer loop
         vertex -8.589565e+00 -3.175000e+00 -3.500000e+00
         vertex -8.641043e+01 -2.675000e+00 -4.000000e+00
         vertex -8.589565e+00 -2.675000e+00 -4.000000e+00
      endloop
   endfacet
   facet normal 4.937700e-15 7.071068e-01 7.071068e-01
      outer loop
         vertex -8.589565e+00 2.675000e+00 4.000000e+00
         vertex -8.589565e+00 3.175000e+00 3.500000e+00
         vertex -8.641043e+01 2.675000e+00 4.000000e+00
      endloop
   endfacet
   facet normal 4.937700e-15 7.071068e-01 7.071068e-01
      outer loop
         vertex -8.641043e+01 2.675000e+00 4.000000e+00
         vertex -8.589565e+00 3.175000e+00 3.500000e+00
         vertex -8.641043e+01 3.175000e+00 3.500000e+00
      endloop
   endfacet
   facet normal -2.849765e-01 7.037419e-01 6.507962e-01
      outer loop
         vertex -3.359997e+00 2.675000e+00 5.476408e+00
         vertex -3.098519e+00 3.175000e+00 5.050228e+00
         vertex -5.872574e+00 2.675000e+00 4.376178e+00
      endloop
   endfacet
   facet normal -2.849765e-01 7.037424e-01 6.507957e-01
      outer loop
         vertex -5.872574e+00 2.675000e+00 4.376178e+00
         vertex -3.098519e+00 3.175000e+00 5.050228e+00
         vertex -5.736724e+00 3.175000e+00 3.894986e+00
      endloop
   endfacet
   facet normal -9.743572e-02 7.037423e-01 7.037421e-01
      outer loop
         vertex -5.872574e+00 2.675000e+00 4.376178e+00
         vertex -5.736724e+00 3.175000e+00 3.894986e+00
         vertex -8.589565e+00 2.675000e+00 4.000000e+00
      endloop
   endfacet
   facet normal -9.743570e-02 7.037422e-01 7.037422e-01
      outer loop
         vertex -8.589565e+00 2.675000e+00 4.000000e+00
         vertex -5.736724e+00 3.175000e+00 3.894986e+00
         vertex -8.589565e+00 3.175000e+00 3.500000e+00
      endloop
   endfacet
   facet normal 9.743555e-02 7.037423e-01 7.037423e-01
      outer loop
         vertex -8.641043e+01 2.675000e+00 4.000000e+00
         vertex -8.641043e+01 3.175000e+00 3.500000e+00
         vertex -8.912743e+01 2.675000e+00 4.376178e+00
      endloop
   endfacet
   facet normal 9.743567e-02 7.037420e-01 7.037425e-01
      outer loop
         vertex -8.912743e+01 2.675000e+00 4.376178e+00
         vertex -8.641043e+01 3.175000e+00 3.500000e+00
         vertex -8.926328e+01 3.175000e+00 3.894986e+00
      endloop
   endfacet
   facet normal 2.849770e-01 7.037414e-01 6.507965e-01
      outer loop
         vertex -8.912743e+01 2.675000e+00 4.376178e+00
         vertex -8.926328e+01 3.175000e+00 3.894986e+00
         vertex -9.164000e+01 2.675000e+00 5.476408e+00
      endloop
   endfacet
   facet normal 2.849767e-01 7.037419e-01 6.507962e-01
      outer loop
         vertex -9.164000e+01 2.675000e+00 5.476408e+00
         vertex -8.926328e+01 3.175000e+00 3.894986e+00
         vertex -9.190148e+01 3.175000e+00 5.050228e+00
      endloop
   endfacet
   facet normal -2.497358e-01 7.004619e-01 6.685695e-01
      outer loop
         vertex -3.098519e+00 3.175000e+00 5.050228e+00
         vertex -3.359997e+00 2.675000e+00 5.476408e+00
         vertex -1.053162e+00 2.675000e+00 6.338097e+00
      endloop
   endfacet
   facet normal -2.497356e-01 7.004622e-01 6.685693e-01
      outer loop
         vertex -3.098519e+00 3.175000e+00 5.050228e+00
         vertex -1.053162e+00 2.675000e+00 6.338097e+00
         vertex -9.712042e-01 3.175000e+00 5.844860e+00
      endloop
   endfacet
   facet normal 2.010138e-02 7.004622e-01 7.134064e-01
      outer loop
         vertex -9.712042e-01 3.175000e+00 5.844860e+00
         vertex -1.053162e+00 2.675000e+00 6.338097e+00
         vertex 1.408379e+00 2.675000e+00 6.268739e+00
      endloop
   endfacet
   facet normal 2.010125e-02 7.004619e-01 7.134067e-01
      outer loop
         vertex -9.712042e-01 3.175000e+00 5.844860e+00
         vertex 1.408379e+00 2.675000e+00 6.268739e+00
         vertex 1.298777e+00 3.175000e+00 5.780900e+00
      endloop
   endfacet
   facet normal 2.869855e-01 7.004619e-01 6.534466e-01
      outer loop
         vertex 1.298777e+00 3.175000e+00 5.780900e+00
         vertex 1.408379e+00 2.675000e+00 6.268739e+00
         vertex 3.663033e+00 2.675000e+00 5.278524e+00
      endloop
   endfacet
   facet normal 2.869855e-01 7.004620e-01 6.534465e-01
      outer loop
         vertex 1.298777e+00 3.175000e+00 5.780900e+00
         vertex 3.663033e+00 2.675000e+00 5.278524e+00
         vertex 3.377972e+00 3.175000e+00 4.867744e+00
      endloop
   endfacet
   facet normal 5.117123e-01 7.004620e-01 4.974972e-01
      outer loop
         vertex 3.377972e+00 3.175000e+00 4.867744e+00
         vertex 3.663033e+00 2.675000e+00 5.278524e+00
         vertex 5.379600e+00 2.675000e+00 3.512909e+00
      endloop
   endfacet
   facet normal 5.117123e-01 7.004620e-01 4.974972e-01
      outer loop
         vertex 3.377972e+00 3.175000e+00 4.867744e+00
         vertex 5.379600e+00 2.675000e+00 3.512909e+00
         vertex 4.960954e+00 3.175000e+00 3.239531e+00
      endloop
   endfacet
   facet normal 6.612703e-01 7.004620e-01 2.684671e-01
      outer loop
         vertex 4.960954e+00 3.175000e+00 3.239531e+00
         vertex 5.379600e+00 2.675000e+00 3.512909e+00
         vertex 6.305920e+00 2.675000e+00 1.231259e+00
      endloop
   endfacet
   facet normal 6.612703e-01 7.004620e-01 2.684671e-01
      outer loop
         vertex 4.960954e+00 3.175000e+00 3.239531e+00
         vertex 6.305920e+00 2.675000e+00 1.231259e+00
         vertex 5.815187e+00 3.175000e+00 1.135441e+00
      endloop
   endfacet
   facet normal 7.136897e-01 7.004620e-01 7.336950e-15
      outer loop
         vertex 5.815187e+00 3.175000e+00 1.135441e+00
         vertex 6.305920e+00 2.675000e+00 1.231259e+00
         vertex 6.305920e+00 2.675000e+00 -1.231259e+00
      endloop
   endfacet
   facet normal 7.136897e-01 7.004620e-01 7.336950e-15
      outer loop
         vertex 5.815187e+00 3.175000e+00 1.135441e+00
         vertex 6.305920e+00 2.675000e+00 -1.231259e+00
         vertex 5.815187e+00 3.175000e+00 -1.135441e+00
      endloop
   endfacet
   facet normal 6.612703e-01 7.004620e-01 -2.684671e-01
      outer loop
         vertex 5.815187e+00 3.175000e+00 -1.135441e+00
         vertex 6.305920e+00 2.675000e+00 -1.231259e+00
         vertex 5.379600e+00 2.675000e+00 -3.512909e+00
      endloop
   endfacet
   facet normal 6.612703e-01 7.004620e-01 -2.684671e-01
      outer loop
         vertex 5.815187e+00 3.175000e+00 -1.135441e+00
         vertex 5.379600e+00 2.675000e+00 -3.512909e+00
         vertex 4.960954e+00 3.175000e+00 -3.239531e+00
      endloop
   endfacet
   facet normal 5.117124e-01 7.004620e-01 -4.974972e-01
      outer loop
         vertex 4.960954e+00 3.175000e+00 -3.239531e+00
         vertex 5.379600e+00 2.675000e+00 -3.512909e+00
         vertex 3.663033e+00 2.675000e+00 -5.278524e+00
      endloop
   endfacet
   facet normal 5.117123e-01 7.004620e-01 -4.974972e-01
      outer loop
         vertex 4.960954e+00 3.175000e+00 -3.239531e+00
         vertex 3.663033e+00 2.675000e+00 -5.278524e+00
         vertex 3.377972e+00 3.175000e+00 -4.867744e+00
      endloop
   endfacet
   facet normal 2.869854e-01 7.004620e-01 -6.534465e-01
      outer loop
         vertex 3.377972e+00 3.175000e+00 -4.867744e+00
         vertex 3.663033e+00 2.675000e+00 -5.278524e+00
         vertex 1.408379e+00 2.675000e+00 -6.268739e+00
      endloop
   endfacet
   facet normal 2.869855e-01 7.004619e-01 -6.534466e-01
      outer loop
         vertex 3.377972e+00 3.175000e+00 -4.867744e+00
         vertex 1.408379e+00 2.675000e+00 -6.268739e+00
         vertex 1.298777e+00 3.175000e+00 -5.780900e+00
      endloop
   endfacet
   facet normal 2.010139e-02 7.004619e-01 -7.134067e-01
      outer loop
         vertex 1.298777e+00 3.175000e+00 -5.780900e+00
         vertex 1.408379e+00 2.675000e+00 -6.268739e+00
         vertex -1.053162e+00 2.675000e+00 -6.338097e+00
      endloop
   endfacet
   facet normal 2.010124e-02 7.004622e-01 -7.134064e-01
      outer loop
         vertex 1.298777e+00 3.175000e+00 -5.780900e+00
         vertex -1.053162e+00 2.675000e+00 -6.338097e+00
         vertex -9.712042e-01 3.175000e+00 -5.844860e+00
      endloop
   endfacet
   facet normal -2.497357e-01 7.004622e-01 -6.685692e-01
      outer loop
         vertex -9.712042e-01 3.175000e+00 -5.844860e+00
         vertex -1.053162e+00 2.675000e+00 -6.338097e+00
         vertex -3.359997e+00 2.675000e+00 -5.476408e+00
      endloop
   endfacet
   facet normal -2.497357e-01 7.004618e-01 -6.685696e-01
      outer loop
         vertex -9.712042e-01 3.175000e+00 -5.844860e+00
         vertex -3.359997e+00 2.675000e+00 -5.476408e+00
         vertex -3.098519e+00 3.175000e+00 -5.050228e+00
      endloop
   endfacet
   facet normal 2.497359e-01 7.004618e-01 -6.685695e-01
      outer loop
         vertex -9.190148e+01 3.175000e+00 -5.050228e+00
         vertex -9.164000e+01 2.675000e+00 -5.476408e+00
         vertex -9.394684e+01 2.675000e+00 -6.338097e+00
      endloop
   endfacet
   facet normal 2.497360e-01 7.004617e-01 -6.685696e-01
      outer loop
         vertex -9.190148e+01 3.175000e+00 -5.050228e+00
         vertex -9.394684e+01 2.675000e+00 -6.338097e+00
         vertex -9.402879e+01 3.175000e+00 -5.844860e+00
      endloop
   endfacet
   facet normal -2.010135e-02 7.004622e-01 -7.134063e-01
      outer loop
         vertex -9.402879e+01 3.175000e+00 -5.844860e+00
         vertex -9.394684e+01 2.675000e+00 -6.338097e+00
         vertex -9.640838e+01 2.675000e+00 -6.268739e+00
      endloop
   endfacet
   facet normal -2.010124e-02 7.004619e-01 -7.134066e-01
      outer loop
         vertex -9.402879e+01 3.175000e+00 -5.844860e+00
         vertex -9.640838e+01 2.675000e+00 -6.268739e+00
         vertex -9.629878e+01 3.175000e+00 -5.780900e+00
      endloop
   endfacet
   facet normal -2.869855e-01 7.004630e-01 -6.534454e-01
      outer loop
         vertex -9.629878e+01 3.175000e+00 -5.780900e+00
         vertex -9.640838e+01 2.675000e+00 -6.268739e+00
         vertex -9.866303e+01 2.675000e+00 -5.278524e+00
      endloop
   endfacet
   facet normal -2.869855e-01 7.004614e-01 -6.534471e-01
      outer loop
         vertex -9.629878e+01 3.175000e+00 -5.780900e+00
         vertex -9.866303e+01 2.675000e+00 -5.278524e+00
         vertex -9.837797e+01 3.175000e+00 -4.867744e+00
      endloop
   endfacet
   facet normal -5.117126e-01 7.004611e-01 -4.974982e-01
      outer loop
         vertex -9.837797e+01 3.175000e+00 -4.867744e+00
         vertex -9.866303e+01 2.675000e+00 -5.278524e+00
         vertex -1.003796e+02 2.675000e+00 -3.512909e+00
      endloop
   endfacet
   facet normal -5.117117e-01 7.004633e-01 -4.974961e-01
      outer loop
         vertex -9.837797e+01 3.175000e+00 -4.867744e+00
         vertex -1.003796e+02 2.675000e+00 -3.512909e+00
         vertex -9.996095e+01 3.175000e+00 -3.239531e+00
      endloop
   endfacet
   facet normal -6.612694e-01 7.004635e-01 -2.684655e-01
      outer loop
         vertex -9.996095e+01 3.175000e+00 -3.239531e+00
         vertex -1.003796e+02 2.675000e+00 -3.512909e+00
         vertex -1.013059e+02 2.675000e+00 -1.231259e+00
      endloop
   endfacet
   facet normal -6.612707e-01 7.004617e-01 -2.684668e-01
      outer loop
         vertex -9.996095e+01 3.175000e+00 -3.239531e+00
         vertex -1.013059e+02 2.675000e+00 -1.231259e+00
         vertex -1.008152e+02 3.175000e+00 -1.135441e+00
      endloop
   endfacet
   facet normal -7.136900e-01 7.004617e-01 7.336946e-15
      outer loop
         vertex -1.008152e+02 3.175000e+00 -1.135441e+00
         vertex -1.013059e+02 2.675000e+00 -1.231259e+00
         vertex -1.013059e+02 2.675000e+00 1.231259e+00
      endloop
   endfacet
   facet normal -7.136900e-01 7.004617e-01 7.336946e-15
      outer loop
         vertex -1.008152e+02 3.175000e+00 -1.135441e+00
         vertex -1.013059e+02 2.675000e+00 1.231259e+00
         vertex -1.008152e+02 3.175000e+00 1.135441e+00
      endloop
   endfacet
   facet normal -6.612709e-01 7.004618e-01 2.684661e-01
      outer loop
         vertex -1.008152e+02 3.175000e+00 1.135441e+00
         vertex -1.013059e+02 2.675000e+00 1.231259e+00
         vertex -1.003796e+02 2.675000e+00 3.512909e+00
      endloop
   endfacet
   facet normal -6.612691e-01 7.004635e-01 2.684661e-01
      outer loop
         vertex -1.008152e+02 3.175000e+00 1.135441e+00
         vertex -1.003796e+02 2.675000e+00 3.512909e+00
         vertex -9.996095e+01 3.175000e+00 3.239531e+00
      endloop
   endfacet
   facet normal -5.117112e-01 7.004632e-01 4.974968e-01
      outer loop
         vertex -9.996095e+01 3.175000e+00 3.239531e+00
         vertex -1.003796e+02 2.675000e+00 3.512909e+00
         vertex -9.866303e+01 2.675000e+00 5.278524e+00
      endloop
   endfacet
   facet normal -5.117133e-01 7.004610e-01 4.974976e-01
      outer loop
         vertex -9.996095e+01 3.175000e+00 3.239531e+00
         vertex -9.866303e+01 2.675000e+00 5.278524e+00
         vertex -9.837797e+01 3.175000e+00 4.867744e+00
      endloop
   endfacet
   facet normal -2.869861e-01 7.004615e-01 6.534468e-01
      outer loop
         vertex -9.837797e+01 3.175000e+00 4.867744e+00
         vertex -9.866303e+01 2.675000e+00 5.278524e+00
         vertex -9.640838e+01 2.675000e+00 6.268739e+00
      endloop
   endfacet
   facet normal -2.869849e-01 7.004631e-01 6.534456e-01
      outer loop
         vertex -9.837797e+01 3.175000e+00 4.867744e+00
         vertex -9.640838e+01 2.675000e+00 6.268739e+00
         vertex -9.629878e+01 3.175000e+00 5.780900e+00
      endloop
   endfacet
   facet normal -2.010136e-02 7.004619e-01 7.134066e-01
      outer loop
         vertex -9.629878e+01 3.175000e+00 5.780900e+00
         vertex -9.640838e+01 2.675000e+00 6.268739e+00
         vertex -9.394684e+01 2.675000e+00 6.338097e+00
      endloop
   endfacet
   facet normal -2.010123e-02 7.004622e-01 7.134063e-01
      outer loop
         vertex -9.629878e+01 3.175000e+00 5.780900e+00
         vertex -9.394684e+01 2.675000e+00 6.338097e+00
         vertex -9.402879e+01 3.175000e+00 5.844860e+00
      endloop
   endfacet
   facet normal 2.497360e-01 7.004617e-01 6.685696e-01
      outer loop
         vertex -9.402879e+01 3.175000e+00 5.844860e+00
         vertex -9.394684e+01 2.675000e+00 6.338097e+00
         vertex -9.164000e+01 2.675000e+00 5.476408e+00
      endloop
   endfacet
   facet normal 2.497360e-01 7.004618e-01 6.685695e-01
      outer loop
         vertex -9.402879e+01 3.175000e+00 5.844860e+00
         vertex -9.164000e+01 2.675000e+00 5.476408e+00
         vertex -9.190148e+01 3.175000e+00 5.050228e+00
      endloop
   endfacet
   facet normal -9.743574e-02 7.037422e-01 -7.037422e-01
      outer loop
         vertex -8.589565e+00 2.675000e+00 -4.000000e+00
         vertex -8.589565e+00 3.175000e+00 -3.500000e+00
         vertex -5.872574e+00 2.675000e+00 -4.376178e+00
      endloop
   endfacet
   facet normal -9.743569e-02 7.037423e-01 -7.037421e-01
      outer loop
         vertex -5.872574e+00 2.675000e+00 -4.376178e+00
         vertex -8.589565e+00 3.175000e+00 -3.500000e+00
         vertex -5.736724e+00 3.175000e+00 -3.894986e+00
      endloop
   endfacet
   facet normal -2.849764e-01 7.037424e-01 -6.507958e-01
      outer loop
         vertex -5.872574e+00 2.675000e+00 -4.376178e+00
         vertex -5.736724e+00 3.175000e+00 -3.894986e+00
         vertex -3.359997e+00 2.675000e+00 -5.476408e+00
      endloop
   endfacet
   facet normal -2.849767e-01 7.037420e-01 -6.507961e-01
      outer loop
         vertex -3.359997e+00 2.675000e+00 -5.476408e+00
         vertex -5.736724e+00 3.175000e+00 -3.894986e+00
         vertex -3.098519e+00 3.175000e+00 -5.050228e+00
      endloop
   endfacet
   facet normal 2.849768e-01 7.037419e-01 -6.507961e-01
      outer loop
         vertex -9.164000e+01 2.675000e+00 -5.476408e+00
         vertex -9.190148e+01 3.175000e+00 -5.050228e+00
         vertex -8.912743e+01 2.675000e+00 -4.376178e+00
      endloop
   endfacet
   facet normal 2.849769e-01 7.037414e-01 -6.507966e-01
      outer loop
         vertex -8.912743e+01 2.675000e+00 -4.376178e+00
         vertex -9.190148e+01 3.175000e+00 -5.050228e+00
         vertex -8.926328e+01 3.175000e+00 -3.894986e+00
      endloop
   endfacet
   facet normal 9.743559e-02 7.037420e-01 -7.037425e-01
      outer loop
         vertex -8.912743e+01 2.675000e+00 -4.376178e+00
         vertex -8.926328e+01 3.175000e+00 -3.894986e+00
         vertex -8.641043e+01 2.675000e+00 -4.000000e+00
      endloop
   endfacet
   facet normal 9.743564e-02 7.037422e-01 -7.037422e-01
      outer loop
         vertex -8.641043e+01 2.675000e+00 -4.000000e+00
         vertex -8.926328e+01 3.175000e+00 -3.894986e+00
         vertex -8.641043e+01 3.175000e+00 -3.500000e+00
      endloop
   endfacet
   facet normal 4.937700e-15 7.071068e-01 -7.071068e-01
      outer loop
         vertex -8.641043e+01 2.675000e+00 -4.000000e+00
         vertex -8.641043e+01 3.175000e+00 -3.500000e+00
         vertex -8.589565e+00 2.675000e+00 -4.000000e+00
      endloop
   endfacet
   facet normal 4.937700e-15 7.071068e-01 -7.071068e-01
      outer loop
         vertex -8.589565e+00 2.675000e+00 -4.000000e+00
         vertex -8.641043e+01 3.175000e+00 -3.500000e+00
         vertex -8.589565e+00 3.175000e+00 -3.500000e+00
      endloop
   endfacet
endsolid clevis_calf_connector